<svg width="4878" height="47" viewBox="0 0 4878 47" fill="none" xmlns="http://www.w3.org/2000/svg">
<path d="M6.392 31.256L0.2 2.84H5.096L10.712 29.768C10.856 30.488 11.096 30.824 11.48 30.824C11.864 30.824 12.152 30.536 12.296 29.768L17.624 6.872C18.248 3.896 19.88 2.552 22.088 2.552C24.344 2.552 25.928 3.848 26.6 6.824L32.12 29.768C32.312 30.44 32.504 30.776 32.936 30.776C33.368 30.776 33.56 30.44 33.656 29.768L38.84 2.84H43.736L38.024 30.968C37.448 33.8 35.816 35.576 33.176 35.576C30.632 35.576 28.856 34.04 28.136 31.112L22.568 7.88C22.472 7.448 22.328 7.256 22.088 7.256C21.896 7.256 21.704 7.448 21.608 7.88L16.184 31.4C15.56 34.088 13.688 35.624 11.384 35.624C8.888 35.624 7.016 34.088 6.392 31.256ZM58.1656 35.528C51.0136 35.528 45.6856 30.344 45.6856 23.096C45.6856 16.328 50.5336 10.808 57.5896 10.808C64.6936 10.808 69.1096 15.944 69.1096 22.52V24.44H50.2936C50.8216 28.472 53.8936 31.304 58.1176 31.304C60.9976 31.304 63.5896 30.056 64.9816 27.464L68.6296 29.336C66.5656 33.368 62.7736 35.528 58.1656 35.528ZM50.4856 21.368H64.3576C64.1656 17.624 61.4296 15.08 57.5416 15.08C53.5576 15.08 50.9656 17.864 50.4856 21.368ZM75.743 0.679998H80.495V35H75.743V0.679998ZM99.0361 35.528C92.2681 35.624 86.7481 30.008 86.7481 23.192C86.7481 16.424 92.2681 10.856 99.0361 10.904C103.356 10.904 107.34 12.872 109.5 17.096L105.564 19.304C104.172 16.76 101.82 15.416 99.0361 15.416C94.9081 15.416 91.5001 18.92 91.5001 23.192C91.5001 27.512 94.9081 31.064 99.0361 31.064C101.82 31.064 104.172 29.72 105.564 27.176L109.5 29.336C107.34 33.608 103.356 35.528 99.0361 35.528ZM125.434 35.576C118.33 35.576 112.858 30.008 112.858 23.192C112.858 16.424 118.378 10.904 125.434 10.904C132.538 10.904 137.914 16.472 137.914 23.192C137.914 30.008 132.49 35.576 125.434 35.576ZM125.434 31.064C129.802 31.064 133.162 27.512 133.162 23.24C133.162 18.92 129.802 15.368 125.434 15.368C121.018 15.368 117.61 18.92 117.61 23.24C117.61 27.512 121.018 31.064 125.434 31.064ZM172.405 10.808C179.509 10.808 183.349 16.088 183.349 22.616V35H178.597V23.384C178.597 19.112 176.485 15.368 172.069 15.368C167.797 15.368 165.637 18.968 165.637 23.288V35H160.885V23.288C160.885 18.968 158.725 15.368 154.357 15.368C149.941 15.368 147.973 19.112 147.973 23.384V35H143.221V22.664C143.221 16.088 146.965 10.808 154.021 10.808C158.725 10.808 162.133 13.208 163.333 16.856C164.629 13.208 167.941 10.808 172.405 10.808ZM201.134 35.528C193.982 35.528 188.654 30.344 188.654 23.096C188.654 16.328 193.502 10.808 200.558 10.808C207.662 10.808 212.078 15.944 212.078 22.52V24.44H193.262C193.79 28.472 196.862 31.304 201.086 31.304C203.966 31.304 206.558 30.056 207.95 27.464L211.598 29.336C209.534 33.368 205.742 35.528 201.134 35.528ZM193.454 21.368H207.326C207.134 17.624 204.398 15.08 200.51 15.08C196.526 15.08 193.934 17.864 193.454 21.368ZM242.143 35.624C236.287 35.624 233.167 31.928 233.167 26.552V15.608H228.511V11.48H233.167V5.384H237.919V11.48H246.943V15.608H237.919V26.408C237.919 29.48 239.743 31.304 242.575 31.304C244.111 31.304 245.791 30.728 246.943 29.912V34.28C245.743 35.096 243.871 35.624 242.143 35.624ZM263.668 35.576C256.564 35.576 251.092 30.008 251.092 23.192C251.092 16.424 256.612 10.904 263.668 10.904C270.772 10.904 276.148 16.472 276.148 23.192C276.148 30.008 270.724 35.576 263.668 35.576ZM263.668 31.064C268.036 31.064 271.396 27.512 271.396 23.24C271.396 18.92 268.036 15.368 263.668 15.368C259.252 15.368 255.844 18.92 255.844 23.24C255.844 27.512 259.252 31.064 263.668 31.064ZM324.326 10.808C331.43 10.808 335.27 16.088 335.27 22.616V35H330.518V23.384C330.518 19.112 328.406 15.368 323.99 15.368C319.718 15.368 317.558 18.968 317.558 23.288V35H312.806V23.288C312.806 18.968 310.646 15.368 306.278 15.368C301.862 15.368 299.894 19.112 299.894 23.384V35H295.142V22.664C295.142 16.088 298.886 10.808 305.942 10.808C310.646 10.808 314.054 13.208 315.254 16.856C316.55 13.208 319.862 10.808 324.326 10.808ZM352.816 46.424C347.824 46.424 343.696 44.312 341.584 40.136L345.52 37.976C346.864 40.52 349.504 42.008 352.72 42.008C357.712 42.008 360.304 38.264 360.304 33.176V31.112C358.912 33.752 356.416 35.336 352.864 35.336C345.664 35.336 342.16 30.584 342.16 23.672V11.48H346.864V23.432C346.864 27.848 349.168 30.872 353.44 30.872C357.568 30.872 360.256 27.416 360.256 23.096V11.48H365.056V33.128C365.056 41 360.448 46.424 352.816 46.424ZM390.832 45.8H386.08V23.192C386.08 16.184 391.504 10.904 398.608 10.904C405.712 10.904 411.088 16.472 411.088 23.192C411.088 30.296 405.952 35.576 398.8 35.576C395.632 35.576 392.752 34.184 390.832 32.072V45.8ZM398.608 31.112C402.976 31.112 406.336 27.512 406.336 23.24C406.336 18.92 402.976 15.416 398.608 15.416C394.192 15.416 390.832 18.92 390.832 23.24C390.832 27.512 394.192 31.112 398.608 31.112ZM427.543 35.576C420.439 35.576 414.967 30.008 414.967 23.192C414.967 16.424 420.487 10.904 427.543 10.904C434.647 10.904 440.023 16.472 440.023 23.192C440.023 30.008 434.599 35.576 427.543 35.576ZM427.543 31.064C431.911 31.064 435.271 27.512 435.271 23.24C435.271 18.92 431.911 15.368 427.543 15.368C423.127 15.368 419.719 18.92 419.719 23.24C419.719 27.512 423.127 31.064 427.543 31.064ZM450.082 35H445.33V20.984C445.33 15.272 448.594 11 454.738 11C456.226 11 457.762 11.288 458.962 11.864V16.568C457.81 15.896 456.466 15.56 455.17 15.56C452.002 15.56 450.082 17.72 450.082 21.176V35ZM474.596 35.624C468.74 35.624 465.62 31.928 465.62 26.552V15.608H460.964V11.48H465.62V5.384H470.372V11.48H479.396V15.608H470.372V26.408C470.372 29.48 472.196 31.304 475.028 31.304C476.564 31.304 478.244 30.728 479.396 29.912V34.28C478.196 35.096 476.324 35.624 474.596 35.624ZM491.531 35H486.779V15.608H482.315V11.48H486.779V9.032C486.779 4.04 489.899 0.295998 495.803 0.295998C497.387 0.295998 498.875 0.584 500.075 1.16V5.672C498.971 5 497.579 4.616 496.235 4.616C493.307 4.616 491.531 5.912 491.531 9.032V11.48H499.787V15.608H491.531V35ZM514.543 35.576C507.439 35.576 501.967 30.008 501.967 23.192C501.967 16.424 507.487 10.904 514.543 10.904C521.647 10.904 527.023 16.472 527.023 23.192C527.023 30.008 521.599 35.576 514.543 35.576ZM514.543 31.064C518.911 31.064 522.271 27.512 522.271 23.24C522.271 18.92 518.911 15.368 514.543 15.368C510.127 15.368 506.719 18.92 506.719 23.24C506.719 27.512 510.127 31.064 514.543 31.064ZM533.29 0.679998H538.042V35H533.29V0.679998ZM549.095 6.824C547.367 6.824 545.975 5.432 545.975 3.704C545.975 1.976 547.367 0.535997 549.095 0.535997C550.823 0.535997 552.167 1.976 552.167 3.704C552.167 5.432 550.823 6.824 549.095 6.824ZM546.743 11.48H551.495V35H546.743V11.48ZM570.324 35.576C563.22 35.576 557.748 30.008 557.748 23.192C557.748 16.424 563.268 10.904 570.324 10.904C577.428 10.904 582.804 16.472 582.804 23.192C582.804 30.008 577.38 35.576 570.324 35.576ZM570.324 31.064C574.692 31.064 578.052 27.512 578.052 23.24C578.052 18.92 574.692 15.368 570.324 15.368C565.908 15.368 562.5 18.92 562.5 23.24C562.5 27.512 565.908 31.064 570.324 31.064ZM590.396 43.976H587.228L588.62 34.856C587.852 34.28 587.324 33.368 587.324 32.312C587.324 30.584 588.716 29.24 590.444 29.24C592.172 29.24 593.564 30.584 593.564 32.312C593.564 32.696 593.516 33.08 593.372 33.416L590.396 43.976ZM625.206 35.624C619.35 35.624 616.23 31.928 616.23 26.552V15.608H611.574V11.48H616.23V5.384H620.982V11.48H630.006V15.608H620.982V26.408C620.982 29.48 622.806 31.304 625.638 31.304C627.174 31.304 628.854 30.728 630.006 29.912V34.28C628.806 35.096 626.934 35.624 625.206 35.624ZM645.962 35.576C639.146 35.576 634.154 30.008 634.154 23.192C634.154 16.472 639.53 10.904 646.682 10.904C653.786 10.904 659.21 16.184 659.21 23.192V35H654.698V30.872C652.922 33.752 649.802 35.576 645.962 35.576ZM646.682 31.064C651.098 31.064 654.458 27.512 654.458 23.24C654.458 18.92 651.098 15.368 646.682 15.368C642.314 15.368 638.906 18.92 638.906 23.24C638.906 27.512 642.314 31.064 646.682 31.064ZM671.729 35H666.977V0.631999H671.729V21.272H674.609C674.849 20.696 675.233 20.168 675.713 19.688L683.249 11.48H689.057L678.929 22.52C678.641 22.76 678.497 22.952 678.497 23.192C678.497 23.432 678.641 23.624 678.929 23.864L689.009 35H683.153L675.665 26.792C675.185 26.216 674.801 25.64 674.561 25.016H671.729V35ZM703.213 35.528C696.061 35.528 690.733 30.344 690.733 23.096C690.733 16.328 695.581 10.808 702.637 10.808C709.741 10.808 714.156 15.944 714.156 22.52V24.44H695.341C695.868 28.472 698.941 31.304 703.165 31.304C706.045 31.304 708.637 30.056 710.029 27.464L713.677 29.336C711.613 33.368 707.821 35.528 703.213 35.528ZM695.533 21.368H709.405C709.213 17.624 706.477 15.08 702.589 15.08C698.605 15.08 696.013 17.864 695.533 21.368ZM743.837 35.576C737.021 35.576 732.029 30.008 732.029 23.192C732.029 16.472 737.405 10.904 744.557 10.904C751.661 10.904 757.085 16.184 757.085 23.192V35H752.573V30.872C750.797 33.752 747.677 35.576 743.837 35.576ZM744.557 31.064C748.973 31.064 752.333 27.512 752.333 23.24C752.333 18.92 748.973 15.368 744.557 15.368C740.189 15.368 736.781 18.92 736.781 23.24C736.781 27.512 740.189 31.064 744.557 31.064ZM778.54 0.679998H783.292V35H778.54V0.679998ZM802.121 35.576C795.017 35.576 789.545 30.008 789.545 23.192C789.545 16.424 795.065 10.904 802.121 10.904C809.225 10.904 814.601 16.472 814.601 23.192C814.601 30.008 809.177 35.576 802.121 35.576ZM802.121 31.064C806.489 31.064 809.849 27.512 809.849 23.24C809.849 18.92 806.489 15.368 802.121 15.368C797.705 15.368 794.297 18.92 794.297 23.24C794.297 27.512 797.705 31.064 802.121 31.064ZM830.996 35.576C823.892 35.576 818.42 30.008 818.42 23.192C818.42 16.424 823.94 10.904 830.996 10.904C838.1 10.904 843.476 16.472 843.476 23.192C843.476 30.008 838.052 35.576 830.996 35.576ZM830.996 31.064C835.364 31.064 838.724 27.512 838.724 23.24C838.724 18.92 835.364 15.368 830.996 15.368C826.58 15.368 823.172 18.92 823.172 23.24C823.172 27.512 826.58 31.064 830.996 31.064ZM854.495 35H849.743V0.631999H854.495V21.272H857.375C857.615 20.696 857.999 20.168 858.479 19.688L866.015 11.48H871.823L861.695 22.52C861.407 22.76 861.263 22.952 861.263 23.192C861.263 23.432 861.407 23.624 861.695 23.864L871.775 35H865.919L858.431 26.792C857.951 26.216 857.567 25.64 857.327 25.016H854.495V35ZM900.447 35.576C893.631 35.576 888.639 30.008 888.639 23.192C888.639 16.472 894.015 10.904 901.167 10.904C908.271 10.904 913.695 16.184 913.695 23.192V35H909.183V30.872C907.407 33.752 904.287 35.576 900.447 35.576ZM901.167 31.064C905.583 31.064 908.943 27.512 908.943 23.24C908.943 18.92 905.583 15.368 901.167 15.368C896.799 15.368 893.391 18.92 893.391 23.24C893.391 27.512 896.799 31.064 901.167 31.064ZM931.206 35.624C925.35 35.624 922.23 31.928 922.23 26.552V15.608H917.574V11.48H922.23V5.384H926.982V11.48H936.006V15.608H926.982V26.408C926.982 29.48 928.806 31.304 931.638 31.304C933.174 31.304 934.854 30.728 936.006 29.912V34.28C934.806 35.096 932.934 35.624 931.206 35.624ZM984.983 10.808C992.087 10.808 995.927 16.088 995.927 22.616V35H991.175V23.384C991.175 19.112 989.063 15.368 984.647 15.368C980.375 15.368 978.215 18.968 978.215 23.288V35H973.463V23.288C973.463 18.968 971.303 15.368 966.935 15.368C962.519 15.368 960.551 19.112 960.551 23.384V35H955.799V22.664C955.799 16.088 959.543 10.808 966.599 10.808C971.303 10.808 974.711 13.208 975.911 16.856C977.207 13.208 980.519 10.808 984.983 10.808ZM1013.47 46.424C1008.48 46.424 1004.35 44.312 1002.24 40.136L1006.18 37.976C1007.52 40.52 1010.16 42.008 1013.38 42.008C1018.37 42.008 1020.96 38.264 1020.96 33.176V31.112C1019.57 33.752 1017.07 35.336 1013.52 35.336C1006.32 35.336 1002.82 30.584 1002.82 23.672V11.48H1007.52V23.432C1007.52 27.848 1009.82 30.872 1014.1 30.872C1018.22 30.872 1020.91 27.416 1020.91 23.096V11.48H1025.71V33.128C1025.71 41 1021.1 46.424 1013.47 46.424ZM1051.49 45.8H1046.74V23.192C1046.74 16.184 1052.16 10.904 1059.26 10.904C1066.37 10.904 1071.74 16.472 1071.74 23.192C1071.74 30.296 1066.61 35.576 1059.46 35.576C1056.29 35.576 1053.41 34.184 1051.49 32.072V45.8ZM1059.26 31.112C1063.63 31.112 1066.99 27.512 1066.99 23.24C1066.99 18.92 1063.63 15.416 1059.26 15.416C1054.85 15.416 1051.49 18.92 1051.49 23.24C1051.49 27.512 1054.85 31.112 1059.26 31.112ZM1081.86 35H1077.11V20.984C1077.11 15.272 1080.38 11 1086.52 11C1088.01 11 1089.54 11.288 1090.74 11.864V16.568C1089.59 15.896 1088.25 15.56 1086.95 15.56C1083.78 15.56 1081.86 17.72 1081.86 21.176V35ZM1105.31 35.576C1098.2 35.576 1092.73 30.008 1092.73 23.192C1092.73 16.424 1098.25 10.904 1105.31 10.904C1112.41 10.904 1117.79 16.472 1117.79 23.192C1117.79 30.008 1112.36 35.576 1105.31 35.576ZM1105.31 31.064C1109.68 31.064 1113.04 27.512 1113.04 23.24C1113.04 18.92 1109.68 15.368 1105.31 15.368C1100.89 15.368 1097.48 18.92 1097.48 23.24C1097.48 27.512 1100.89 31.064 1105.31 31.064ZM1126.46 6.824C1124.73 6.824 1123.34 5.432 1123.34 3.704C1123.34 1.976 1124.73 0.535997 1126.46 0.535997C1128.18 0.535997 1129.53 1.976 1129.53 3.704C1129.53 5.432 1128.18 6.824 1126.46 6.824ZM1124.06 11.48H1128.81V36.968C1128.81 42.44 1125.45 46.232 1119.4 46.232L1119.21 41.72C1122.38 41.72 1124.06 39.704 1124.06 36.824V11.48ZM1146.6 35.528C1139.45 35.528 1134.12 30.344 1134.12 23.096C1134.12 16.328 1138.97 10.808 1146.03 10.808C1153.13 10.808 1157.55 15.944 1157.55 22.52V24.44H1138.73C1139.26 28.472 1142.33 31.304 1146.56 31.304C1149.44 31.304 1152.03 30.056 1153.42 27.464L1157.07 29.336C1155 33.368 1151.21 35.528 1146.6 35.528ZM1138.92 21.368H1152.8C1152.6 17.624 1149.87 15.08 1145.98 15.08C1142 15.08 1139.4 17.864 1138.92 21.368ZM1174.02 35.528C1167.25 35.624 1161.73 30.008 1161.73 23.192C1161.73 16.424 1167.25 10.856 1174.02 10.904C1178.34 10.904 1182.32 12.872 1184.48 17.096L1180.55 19.304C1179.16 16.76 1176.8 15.416 1174.02 15.416C1169.89 15.416 1166.48 18.92 1166.48 23.192C1166.48 27.512 1169.89 31.064 1174.02 31.064C1176.8 31.064 1179.16 29.72 1180.55 27.176L1184.48 29.336C1182.32 33.608 1178.34 35.528 1174.02 35.528ZM1200.03 35.624C1194.18 35.624 1191.06 31.928 1191.06 26.552V15.608H1186.4V11.48H1191.06V5.384H1195.81V11.48H1204.83V15.608H1195.81V26.408C1195.81 29.48 1197.63 31.304 1200.47 31.304C1202 31.304 1203.68 30.728 1204.83 29.912V34.28C1203.63 35.096 1201.76 35.624 1200.03 35.624ZM1218.92 35.528C1214.55 35.528 1211.19 33.8 1209.37 30.296L1213.01 28.28C1214.21 30.632 1216.13 31.496 1218.73 31.496C1221.41 31.496 1223.48 30.392 1223.48 28.328C1223.48 23.384 1209.99 27.128 1209.99 18.152C1209.99 14.024 1213.64 11 1218.77 11C1223.14 11 1226.12 13.016 1227.61 15.752L1223.96 17.816C1222.95 15.752 1221.03 15.032 1218.87 15.032C1216.66 15.032 1214.74 16.184 1214.74 18.056C1214.74 22.856 1228.23 19.352 1228.23 28.232C1228.23 32.696 1223.91 35.528 1218.92 35.528ZM1235.78 2.6H1240.63V23.672H1235.78V2.6ZM1238.08 35.432C1236.45 35.432 1235.11 34.088 1235.11 32.456C1235.11 30.776 1236.45 29.432 1238.08 29.432C1239.76 29.432 1241.11 30.776 1241.11 32.456C1241.11 34.088 1239.76 35.432 1238.08 35.432ZM1264.22 2.84H1269.12V35H1264.22V2.84ZM1291.96 0.679998H1296.71V35H1291.96V0.679998ZM1315.54 35.576C1308.44 35.576 1302.97 30.008 1302.97 23.192C1302.97 16.424 1308.49 10.904 1315.54 10.904C1322.65 10.904 1328.02 16.472 1328.02 23.192C1328.02 30.008 1322.6 35.576 1315.54 35.576ZM1315.54 31.064C1319.91 31.064 1323.27 27.512 1323.27 23.24C1323.27 18.92 1319.91 15.368 1315.54 15.368C1311.13 15.368 1307.72 18.92 1307.72 23.24C1307.72 27.512 1311.13 31.064 1315.54 31.064ZM1337.66 31.928L1330.07 11.48H1335.16L1342.07 30.632C1342.12 30.872 1342.31 31.112 1342.6 31.112C1342.94 31.112 1343.13 30.872 1343.18 30.632L1350.09 11.48H1355.13L1347.5 31.928C1346.59 34.376 1344.91 35.624 1342.6 35.624C1340.39 35.624 1338.57 34.376 1337.66 31.928ZM1369.68 35.528C1362.53 35.528 1357.2 30.344 1357.2 23.096C1357.2 16.328 1362.05 10.808 1369.11 10.808C1376.21 10.808 1380.63 15.944 1380.63 22.52V24.44H1361.81C1362.34 28.472 1365.41 31.304 1369.63 31.304C1372.51 31.304 1375.11 30.056 1376.5 27.464L1380.15 29.336C1378.08 33.368 1374.29 35.528 1369.68 35.528ZM1362 21.368H1375.87C1375.68 17.624 1372.95 15.08 1369.06 15.08C1365.07 15.08 1362.48 17.864 1362 21.368ZM1408.43 35.528C1404.07 35.528 1400.71 33.8 1398.88 30.296L1402.53 28.28C1403.73 30.632 1405.65 31.496 1408.24 31.496C1410.93 31.496 1412.99 30.392 1412.99 28.328C1412.99 23.384 1399.51 27.128 1399.51 18.152C1399.51 14.024 1403.15 11 1408.29 11C1412.66 11 1415.63 13.016 1417.12 15.752L1413.47 17.816C1412.47 15.752 1410.55 15.032 1408.39 15.032C1406.18 15.032 1404.26 16.184 1404.26 18.056C1404.26 22.856 1417.75 19.352 1417.75 28.232C1417.75 32.696 1413.43 35.528 1408.43 35.528ZM1434.17 35.624C1428.32 35.624 1425.2 31.928 1425.2 26.552V15.608H1420.54V11.48H1425.2V5.384H1429.95V11.48H1438.97V15.608H1429.95V26.408C1429.95 29.48 1431.77 31.304 1434.61 31.304C1436.14 31.304 1437.82 30.728 1438.97 29.912V34.28C1437.77 35.096 1435.9 35.624 1434.17 35.624ZM1455.7 35.576C1448.6 35.576 1443.12 30.008 1443.12 23.192C1443.12 16.424 1448.64 10.904 1455.7 10.904C1462.8 10.904 1468.18 16.472 1468.18 23.192C1468.18 30.008 1462.76 35.576 1455.7 35.576ZM1455.7 31.064C1460.07 31.064 1463.43 27.512 1463.43 23.24C1463.43 18.92 1460.07 15.368 1455.7 15.368C1451.28 15.368 1447.88 18.92 1447.88 23.24C1447.88 27.512 1451.28 31.064 1455.7 31.064ZM1478.24 35H1473.49V20.984C1473.49 15.272 1476.75 11 1482.89 11C1484.38 11 1485.92 11.288 1487.12 11.864V16.568C1485.97 15.896 1484.62 15.56 1483.33 15.56C1480.16 15.56 1478.24 17.72 1478.24 21.176V35ZM1502.1 46.424C1497.11 46.424 1492.98 44.312 1490.87 40.136L1494.8 37.976C1496.15 40.52 1498.79 42.008 1502 42.008C1506.99 42.008 1509.59 38.264 1509.59 33.176V31.112C1508.19 33.752 1505.7 35.336 1502.15 35.336C1494.95 35.336 1491.44 30.584 1491.44 23.672V11.48H1496.15V23.432C1496.15 27.848 1498.45 30.872 1502.72 30.872C1506.85 30.872 1509.54 27.416 1509.54 23.096V11.48H1514.34V33.128C1514.34 41 1509.73 46.424 1502.1 46.424ZM1532.38 35.624C1526.52 35.624 1523.4 31.928 1523.4 26.552V15.608H1518.75V11.48H1523.4V5.384H1528.15V11.48H1537.18V15.608H1528.15V26.408C1528.15 29.48 1529.98 31.304 1532.81 31.304C1534.35 31.304 1536.03 30.728 1537.18 29.912V34.28C1535.98 35.096 1534.11 35.624 1532.38 35.624ZM1553.81 35.528C1546.65 35.528 1541.33 30.344 1541.33 23.096C1541.33 16.328 1546.17 10.808 1553.23 10.808C1560.33 10.808 1564.75 15.944 1564.75 22.52V24.44H1545.93C1546.46 28.472 1549.53 31.304 1553.76 31.304C1556.64 31.304 1559.23 30.056 1560.62 27.464L1564.27 29.336C1562.21 33.368 1558.41 35.528 1553.81 35.528ZM1546.13 21.368H1560C1559.81 17.624 1557.07 15.08 1553.18 15.08C1549.2 15.08 1546.61 17.864 1546.13 21.368ZM1571.38 0.679998H1576.14V35H1571.38V0.679998ZM1584.84 0.679998H1589.59V35H1584.84V0.679998ZM1600.64 6.824C1598.91 6.824 1597.52 5.432 1597.52 3.704C1597.52 1.976 1598.91 0.535997 1600.64 0.535997C1602.37 0.535997 1603.71 1.976 1603.71 3.704C1603.71 5.432 1602.37 6.824 1600.64 6.824ZM1598.29 11.48H1603.04V35H1598.29V11.48ZM1622.45 15.464C1617.84 15.464 1615.54 19.256 1615.54 23.624V35H1610.78V23.144C1610.78 16.28 1614.86 10.904 1622.45 10.904C1630.13 10.904 1634.3 16.28 1634.3 23.096V35H1629.55V23.672C1629.55 19.256 1627.15 15.464 1622.45 15.464ZM1651.72 46.376C1646.63 46.376 1642.41 44.168 1640.25 39.992L1644.23 37.832C1645.62 40.376 1648.22 42.008 1651.62 42.008C1656.57 42.008 1659.93 38.456 1659.93 32.936V31.064C1658.39 33.512 1655.51 35.336 1651.58 35.336C1644.9 35.336 1639.62 30.056 1639.62 23.144C1639.62 16.424 1645 10.904 1652.15 10.904C1659.26 10.904 1664.68 16.184 1664.68 23.192V32.888C1664.68 41.048 1659.21 46.376 1651.72 46.376ZM1652.1 30.872C1656.42 30.872 1659.88 27.416 1659.88 23.096C1659.88 18.776 1656.42 15.416 1652.1 15.416C1647.83 15.416 1644.33 18.776 1644.33 23.096C1644.33 27.416 1647.83 30.872 1652.1 30.872ZM1695.88 35.624C1690.02 35.624 1686.9 31.928 1686.9 26.552V15.608H1682.25V11.48H1686.9V5.384H1691.65V11.48H1700.68V15.608H1691.65V26.408C1691.65 29.48 1693.48 31.304 1696.31 31.304C1697.85 31.304 1699.53 30.728 1700.68 29.912V34.28C1699.48 35.096 1697.61 35.624 1695.88 35.624ZM1712.5 35H1707.74V0.679998H1712.5V14.12C1714.32 12.152 1717.15 10.904 1720.32 10.904C1727.23 10.904 1731.12 15.512 1731.12 22.712V35H1726.37V23.192C1726.37 19.016 1724.06 15.416 1719.6 15.416C1715.42 15.416 1712.5 18.776 1712.5 23.336V35ZM1742.66 35H1737.91V20.984C1737.91 15.272 1741.17 11 1747.32 11C1748.8 11 1750.34 11.288 1751.54 11.864V16.568C1750.39 15.896 1749.04 15.56 1747.75 15.56C1744.58 15.56 1742.66 17.72 1742.66 21.176V35ZM1766.11 35.576C1759 35.576 1753.53 30.008 1753.53 23.192C1753.53 16.424 1759.05 10.904 1766.11 10.904C1773.21 10.904 1778.59 16.472 1778.59 23.192C1778.59 30.008 1773.16 35.576 1766.11 35.576ZM1766.11 31.064C1770.47 31.064 1773.83 27.512 1773.83 23.24C1773.83 18.92 1770.47 15.368 1766.11 15.368C1761.69 15.368 1758.28 18.92 1758.28 23.24C1758.28 27.512 1761.69 31.064 1766.11 31.064ZM1795.12 30.968C1799.49 30.968 1801.89 27.176 1801.89 22.808V11.48H1806.64V23.384C1806.64 30.2 1802.52 35.576 1795.12 35.576C1787.83 35.576 1783.7 30.152 1783.7 23.336V11.48H1788.45V22.856C1788.45 27.176 1790.8 30.968 1795.12 30.968ZM1823.89 46.376C1818.8 46.376 1814.58 44.168 1812.42 39.992L1816.4 37.832C1817.8 40.376 1820.39 42.008 1823.8 42.008C1828.74 42.008 1832.1 38.456 1832.1 32.936V31.064C1830.56 33.512 1827.68 35.336 1823.75 35.336C1817.08 35.336 1811.8 30.056 1811.8 23.144C1811.8 16.424 1817.17 10.904 1824.32 10.904C1831.43 10.904 1836.85 16.184 1836.85 23.192V32.888C1836.85 41.048 1831.38 46.376 1823.89 46.376ZM1824.28 30.872C1828.6 30.872 1832.05 27.416 1832.05 23.096C1832.05 18.776 1828.6 15.416 1824.28 15.416C1820 15.416 1816.5 18.776 1816.5 23.096C1816.5 27.416 1820 30.872 1824.28 30.872ZM1849.37 35H1844.62V0.679998H1849.37V14.12C1851.19 12.152 1854.03 10.904 1857.19 10.904C1864.11 10.904 1867.99 15.512 1867.99 22.712V35H1863.24V23.192C1863.24 19.016 1860.94 15.416 1856.47 15.416C1852.3 15.416 1849.37 18.776 1849.37 23.336V35ZM1899.51 35.576C1892.36 35.576 1886.98 30.056 1886.98 23.288C1886.98 16.136 1892.17 10.904 1899.27 10.904C1902.44 10.904 1905.32 12.296 1907.24 14.408L1907.29 0.679998H1912.04V23.288C1912.04 30.248 1906.61 35.576 1899.51 35.576ZM1899.51 31.112C1903.93 31.112 1907.29 27.56 1907.29 23.24C1907.29 18.968 1903.93 15.416 1899.51 15.416C1895.14 15.416 1891.73 18.968 1891.73 23.24C1891.73 27.56 1895.14 31.112 1899.51 31.112ZM1929.84 35.528C1922.69 35.528 1917.36 30.344 1917.36 23.096C1917.36 16.328 1922.21 10.808 1929.26 10.808C1936.37 10.808 1940.78 15.944 1940.78 22.52V24.44H1921.97C1922.49 28.472 1925.57 31.304 1929.79 31.304C1932.67 31.304 1935.26 30.056 1936.65 27.464L1940.3 29.336C1938.24 33.368 1934.45 35.528 1929.84 35.528ZM1922.16 21.368H1936.03C1935.84 17.624 1933.1 15.08 1929.21 15.08C1925.23 15.08 1922.64 17.864 1922.16 21.368ZM1954.9 35.528C1950.53 35.528 1947.17 33.8 1945.35 30.296L1949 28.28C1950.2 30.632 1952.12 31.496 1954.71 31.496C1957.4 31.496 1959.46 30.392 1959.46 28.328C1959.46 23.384 1945.97 27.128 1945.97 18.152C1945.97 14.024 1949.62 11 1954.76 11C1959.13 11 1962.1 13.016 1963.59 15.752L1959.94 17.816C1958.93 15.752 1957.01 15.032 1954.85 15.032C1952.65 15.032 1950.73 16.184 1950.73 18.056C1950.73 22.856 1964.21 19.352 1964.21 28.232C1964.21 32.696 1959.89 35.528 1954.9 35.528ZM1973.25 6.824C1971.52 6.824 1970.13 5.432 1970.13 3.704C1970.13 1.976 1971.52 0.535997 1973.25 0.535997C1974.98 0.535997 1976.32 1.976 1976.32 3.704C1976.32 5.432 1974.98 6.824 1973.25 6.824ZM1970.9 11.48H1975.65V35H1970.9V11.48ZM1994 46.376C1988.91 46.376 1984.69 44.168 1982.53 39.992L1986.51 37.832C1987.9 40.376 1990.5 42.008 1993.9 42.008C1998.85 42.008 2002.21 38.456 2002.21 32.936V31.064C2000.67 33.512 1997.79 35.336 1993.86 35.336C1987.18 35.336 1981.9 30.056 1981.9 23.144C1981.9 16.424 1987.28 10.904 1994.43 10.904C2001.54 10.904 2006.96 16.184 2006.96 23.192V32.888C2006.96 41.048 2001.49 46.376 1994 46.376ZM1994.38 30.872C1998.7 30.872 2002.16 27.416 2002.16 23.096C2002.16 18.776 1998.7 15.416 1994.38 15.416C1990.11 15.416 1986.61 18.776 1986.61 23.096C1986.61 27.416 1990.11 30.872 1994.38 30.872ZM2025.43 15.464C2020.82 15.464 2018.52 19.256 2018.52 23.624V35H2013.77V23.144C2013.77 16.28 2017.85 10.904 2025.43 10.904C2033.11 10.904 2037.29 16.28 2037.29 23.096V35H2032.54V23.672C2032.54 19.256 2030.14 15.464 2025.43 15.464ZM2070.31 35.576C2063.21 35.576 2057.78 30.248 2057.78 23.288V0.679998H2062.54V14.408C2064.46 12.296 2067.34 10.904 2070.5 10.904C2077.66 10.904 2082.79 16.136 2082.79 23.288C2082.79 30.056 2077.42 35.576 2070.31 35.576ZM2070.31 31.112C2074.68 31.112 2078.04 27.56 2078.04 23.24C2078.04 18.968 2074.68 15.416 2070.31 15.416C2065.9 15.416 2062.54 18.968 2062.54 23.24C2062.54 27.56 2065.9 31.112 2070.31 31.112ZM2099.39 30.968C2103.76 30.968 2106.16 27.176 2106.16 22.808V11.48H2110.91V23.384C2110.91 30.2 2106.78 35.576 2099.39 35.576C2092.09 35.576 2087.97 30.152 2087.97 23.336V11.48H2092.72V22.856C2092.72 27.176 2095.07 30.968 2099.39 30.968ZM2128.3 46.424C2123.31 46.424 2119.18 44.312 2117.07 40.136L2121 37.976C2122.35 40.52 2124.99 42.008 2128.2 42.008C2133.2 42.008 2135.79 38.264 2135.79 33.176V31.112C2134.4 33.752 2131.9 35.336 2128.35 35.336C2121.15 35.336 2117.64 30.584 2117.64 23.672V11.48H2122.35V23.432C2122.35 27.848 2124.65 30.872 2128.92 30.872C2133.05 30.872 2135.74 27.416 2135.74 23.096V11.48H2140.54V33.128C2140.54 41 2135.93 46.424 2128.3 46.424ZM2172.56 35.528C2165.4 35.528 2160.08 30.344 2160.08 23.096C2160.08 16.328 2164.92 10.808 2171.98 10.808C2179.08 10.808 2183.5 15.944 2183.5 22.52V24.44H2164.68C2165.21 28.472 2168.28 31.304 2172.51 31.304C2175.39 31.304 2177.98 30.056 2179.37 27.464L2183.02 29.336C2180.96 33.368 2177.16 35.528 2172.56 35.528ZM2164.88 21.368H2178.75C2178.56 17.624 2175.82 15.08 2171.93 15.08C2167.95 15.08 2165.36 17.864 2164.88 21.368ZM2193.6 31.928L2186.01 11.48H2191.1L2198.01 30.632C2198.06 30.872 2198.25 31.112 2198.54 31.112C2198.88 31.112 2199.07 30.872 2199.12 30.632L2206.03 11.48H2211.07L2203.44 31.928C2202.52 34.376 2200.84 35.624 2198.54 35.624C2196.33 35.624 2194.51 34.376 2193.6 31.928ZM2225.71 35.576C2218.61 35.576 2213.14 30.008 2213.14 23.192C2213.14 16.424 2218.66 10.904 2225.71 10.904C2232.82 10.904 2238.19 16.472 2238.19 23.192C2238.19 30.008 2232.77 35.576 2225.71 35.576ZM2225.71 31.064C2230.08 31.064 2233.44 27.512 2233.44 23.24C2233.44 18.92 2230.08 15.368 2225.71 15.368C2221.3 15.368 2217.89 18.92 2217.89 23.24C2217.89 27.512 2221.3 31.064 2225.71 31.064ZM2249.21 35H2244.46V0.631999H2249.21V21.272H2252.09C2252.33 20.696 2252.72 20.168 2253.2 19.688L2260.73 11.48H2266.54L2256.41 22.52C2256.13 22.76 2255.98 22.952 2255.98 23.192C2255.98 23.432 2256.13 23.624 2256.41 23.864L2266.49 35H2260.64L2253.15 26.792C2252.67 26.216 2252.29 25.64 2252.05 25.016H2249.21V35ZM2274.47 6.824C2272.74 6.824 2271.35 5.432 2271.35 3.704C2271.35 1.976 2272.74 0.535997 2274.47 0.535997C2276.2 0.535997 2277.54 1.976 2277.54 3.704C2277.54 5.432 2276.2 6.824 2274.47 6.824ZM2272.12 11.48H2276.87V35H2272.12V11.48ZM2296.28 15.464C2291.67 15.464 2289.36 19.256 2289.36 23.624V35H2284.61V23.144C2284.61 16.28 2288.69 10.904 2296.28 10.904C2303.96 10.904 2308.13 16.28 2308.13 23.096V35H2303.38V23.672C2303.38 19.256 2300.98 15.464 2296.28 15.464ZM2325.55 46.376C2320.46 46.376 2316.24 44.168 2314.08 39.992L2318.06 37.832C2319.45 40.376 2322.04 42.008 2325.45 42.008C2330.4 42.008 2333.76 38.456 2333.76 32.936V31.064C2332.22 33.512 2329.34 35.336 2325.4 35.336C2318.73 35.336 2313.45 30.056 2313.45 23.144C2313.45 16.424 2318.83 10.904 2325.98 10.904C2333.08 10.904 2338.51 16.184 2338.51 23.192V32.888C2338.51 41.048 2333.04 46.376 2325.55 46.376ZM2325.93 30.872C2330.25 30.872 2333.71 27.416 2333.71 23.096C2333.71 18.776 2330.25 15.416 2325.93 15.416C2321.66 15.416 2318.16 18.776 2318.16 23.096C2318.16 27.416 2321.66 30.872 2325.93 30.872ZM2369.99 35.528C2362.84 35.528 2357.51 30.344 2357.51 23.096C2357.51 16.328 2362.36 10.808 2369.42 10.808C2376.52 10.808 2380.94 15.944 2380.94 22.52V24.44H2362.12C2362.65 28.472 2365.72 31.304 2369.95 31.304C2372.83 31.304 2375.42 30.056 2376.81 27.464L2380.46 29.336C2378.39 33.368 2374.6 35.528 2369.99 35.528ZM2362.31 21.368H2376.19C2375.99 17.624 2373.26 15.08 2369.37 15.08C2365.39 15.08 2362.79 17.864 2362.31 21.368ZM2415.8 10.808C2422.9 10.808 2426.74 16.088 2426.74 22.616V35H2421.99V23.384C2421.99 19.112 2419.88 15.368 2415.46 15.368C2411.19 15.368 2409.03 18.968 2409.03 23.288V35H2404.28V23.288C2404.28 18.968 2402.12 15.368 2397.75 15.368C2393.33 15.368 2391.36 19.112 2391.36 23.384V35H2386.61V22.664C2386.61 16.088 2390.36 10.808 2397.41 10.808C2402.12 10.808 2405.52 13.208 2406.72 16.856C2408.02 13.208 2411.33 10.808 2415.8 10.808ZM2444.62 35.576C2437.52 35.576 2432.05 30.008 2432.05 23.192C2432.05 16.424 2437.57 10.904 2444.62 10.904C2451.73 10.904 2457.1 16.472 2457.1 23.192C2457.1 30.008 2451.68 35.576 2444.62 35.576ZM2444.62 31.064C2448.99 31.064 2452.35 27.512 2452.35 23.24C2452.35 18.92 2448.99 15.368 2444.62 15.368C2440.21 15.368 2436.8 18.92 2436.8 23.24C2436.8 27.512 2440.21 31.064 2444.62 31.064ZM2473.11 35.624C2467.26 35.624 2464.14 31.928 2464.14 26.552V15.608H2459.48V11.48H2464.14V5.384H2468.89V11.48H2477.91V15.608H2468.89V26.408C2468.89 29.48 2470.71 31.304 2473.54 31.304C2475.08 31.304 2476.76 30.728 2477.91 29.912V34.28C2476.71 35.096 2474.84 35.624 2473.11 35.624ZM2487.33 6.824C2485.6 6.824 2484.21 5.432 2484.21 3.704C2484.21 1.976 2485.6 0.535997 2487.33 0.535997C2489.06 0.535997 2490.4 1.976 2490.4 3.704C2490.4 5.432 2489.06 6.824 2487.33 6.824ZM2484.98 11.48H2489.73V35H2484.98V11.48ZM2508.56 35.576C2501.45 35.576 2495.98 30.008 2495.98 23.192C2495.98 16.424 2501.5 10.904 2508.56 10.904C2515.66 10.904 2521.04 16.472 2521.04 23.192C2521.04 30.008 2515.61 35.576 2508.56 35.576ZM2508.56 31.064C2512.93 31.064 2516.29 27.512 2516.29 23.24C2516.29 18.92 2512.93 15.368 2508.56 15.368C2504.14 15.368 2500.73 18.92 2500.73 23.24C2500.73 27.512 2504.14 31.064 2508.56 31.064ZM2538.01 15.464C2533.4 15.464 2531.1 19.256 2531.1 23.624V35H2526.35V23.144C2526.35 16.28 2530.43 10.904 2538.01 10.904C2545.69 10.904 2549.87 16.28 2549.87 23.096V35H2545.11V23.672C2545.11 19.256 2542.71 15.464 2538.01 15.464ZM2565.12 35.528C2560.75 35.528 2557.39 33.8 2555.57 30.296L2559.22 28.28C2560.42 30.632 2562.34 31.496 2564.93 31.496C2567.62 31.496 2569.68 30.392 2569.68 28.328C2569.68 23.384 2556.19 27.128 2556.19 18.152C2556.19 14.024 2559.84 11 2564.98 11C2569.35 11 2572.32 13.016 2573.81 15.752L2570.16 17.816C2569.15 15.752 2567.23 15.032 2565.07 15.032C2562.87 15.032 2560.95 16.184 2560.95 18.056C2560.95 22.856 2574.43 19.352 2574.43 28.232C2574.43 32.696 2570.11 35.528 2565.12 35.528ZM2604.17 35.576C2597.35 35.576 2592.36 30.008 2592.36 23.192C2592.36 16.472 2597.73 10.904 2604.89 10.904C2611.99 10.904 2617.41 16.184 2617.41 23.192V35H2612.9V30.872C2611.13 33.752 2608.01 35.576 2604.17 35.576ZM2604.89 31.064C2609.3 31.064 2612.66 27.512 2612.66 23.24C2612.66 18.92 2609.3 15.368 2604.89 15.368C2600.52 15.368 2597.11 18.92 2597.11 23.24C2597.11 27.512 2600.52 31.064 2604.89 31.064ZM2635.88 15.464C2631.28 15.464 2628.97 19.256 2628.97 23.624V35H2624.22V23.144C2624.22 16.28 2628.3 10.904 2635.88 10.904C2643.56 10.904 2647.74 16.28 2647.74 23.096V35H2642.99V23.672C2642.99 19.256 2640.59 15.464 2635.88 15.464ZM2665.59 35.576C2658.44 35.576 2653.06 30.056 2653.06 23.288C2653.06 16.136 2658.24 10.904 2665.35 10.904C2668.52 10.904 2671.4 12.296 2673.32 14.408L2673.36 0.679998H2678.12V23.288C2678.12 30.248 2672.69 35.576 2665.59 35.576ZM2665.59 31.112C2670 31.112 2673.36 27.56 2673.36 23.24C2673.36 18.968 2670 15.416 2665.59 15.416C2661.22 15.416 2657.81 18.968 2657.81 23.24C2657.81 27.56 2661.22 31.112 2665.59 31.112ZM2709.22 46.376C2704.13 46.376 2699.91 44.168 2697.75 39.992L2701.73 37.832C2703.12 40.376 2705.72 42.008 2709.12 42.008C2714.07 42.008 2717.43 38.456 2717.43 32.936V31.064C2715.89 33.512 2713.01 35.336 2709.08 35.336C2702.4 35.336 2697.12 30.056 2697.12 23.144C2697.12 16.424 2702.5 10.904 2709.65 10.904C2716.76 10.904 2722.18 16.184 2722.18 23.192V32.888C2722.18 41.048 2716.71 46.376 2709.22 46.376ZM2709.6 30.872C2713.92 30.872 2717.38 27.416 2717.38 23.096C2717.38 18.776 2713.92 15.416 2709.6 15.416C2705.33 15.416 2701.83 18.776 2701.83 23.096C2701.83 27.416 2705.33 30.872 2709.6 30.872ZM2740.22 30.968C2744.59 30.968 2746.99 27.176 2746.99 22.808V11.48H2751.74V23.384C2751.74 30.2 2747.61 35.576 2740.22 35.576C2732.92 35.576 2728.79 30.152 2728.79 23.336V11.48H2733.55V22.856C2733.55 27.176 2735.9 30.968 2740.22 30.968ZM2761.69 6.824C2759.96 6.824 2758.57 5.432 2758.57 3.704C2758.57 1.976 2759.96 0.535997 2761.69 0.535997C2763.42 0.535997 2764.76 1.976 2764.76 3.704C2764.76 5.432 2763.42 6.824 2761.69 6.824ZM2759.34 11.48H2764.09V35H2759.34V11.48ZM2782.87 35.576C2775.72 35.576 2770.34 30.056 2770.34 23.288C2770.34 16.136 2775.53 10.904 2782.63 10.904C2785.8 10.904 2788.68 12.296 2790.6 14.408L2790.65 0.679998H2795.4V23.288C2795.4 30.248 2789.97 35.576 2782.87 35.576ZM2782.87 31.112C2787.29 31.112 2790.65 27.56 2790.65 23.24C2790.65 18.968 2787.29 15.416 2782.87 15.416C2778.5 15.416 2775.09 18.968 2775.09 23.24C2775.09 27.56 2778.5 31.112 2782.87 31.112ZM2805.52 6.824C2803.79 6.824 2802.4 5.432 2802.4 3.704C2802.4 1.976 2803.79 0.535997 2805.52 0.535997C2807.24 0.535997 2808.59 1.976 2808.59 3.704C2808.59 5.432 2807.24 6.824 2805.52 6.824ZM2803.16 11.48H2807.92V35H2803.16V11.48ZM2827.32 15.464C2822.71 15.464 2820.41 19.256 2820.41 23.624V35H2815.66V23.144C2815.66 16.28 2819.74 10.904 2827.32 10.904C2835 10.904 2839.18 16.28 2839.18 23.096V35H2834.43V23.672C2834.43 19.256 2832.03 15.464 2827.32 15.464ZM2856.59 46.376C2851.51 46.376 2847.28 44.168 2845.12 39.992L2849.11 37.832C2850.5 40.376 2853.09 42.008 2856.5 42.008C2861.44 42.008 2864.8 38.456 2864.8 32.936V31.064C2863.27 33.512 2860.39 35.336 2856.45 35.336C2849.78 35.336 2844.5 30.056 2844.5 23.144C2844.5 16.424 2849.87 10.904 2857.03 10.904C2864.13 10.904 2869.55 16.184 2869.55 23.192V32.888C2869.55 41.048 2864.08 46.376 2856.59 46.376ZM2856.98 30.872C2861.3 30.872 2864.75 27.416 2864.75 23.096C2864.75 18.776 2861.3 15.416 2856.98 15.416C2852.71 15.416 2849.2 18.776 2849.2 23.096C2849.2 27.416 2852.71 30.872 2856.98 30.872ZM2901.28 30.968C2905.65 30.968 2908.05 27.176 2908.05 22.808V11.48H2912.8V23.384C2912.8 30.2 2908.67 35.576 2901.28 35.576C2893.98 35.576 2889.86 30.152 2889.86 23.336V11.48H2894.61V22.856C2894.61 27.176 2896.96 30.968 2901.28 30.968ZM2927.89 35.528C2923.52 35.528 2920.16 33.8 2918.34 30.296L2921.98 28.28C2923.18 30.632 2925.1 31.496 2927.7 31.496C2930.38 31.496 2932.45 30.392 2932.45 28.328C2932.45 23.384 2918.96 27.128 2918.96 18.152C2918.96 14.024 2922.61 11 2927.74 11C2932.11 11 2935.09 13.016 2936.58 15.752L2932.93 17.816C2931.92 15.752 2930 15.032 2927.84 15.032C2925.63 15.032 2923.71 16.184 2923.71 18.056C2923.71 22.856 2937.2 19.352 2937.2 28.232C2937.2 32.696 2932.88 35.528 2927.89 35.528ZM2953.92 35.528C2946.76 35.528 2941.44 30.344 2941.44 23.096C2941.44 16.328 2946.28 10.808 2953.34 10.808C2960.44 10.808 2964.86 15.944 2964.86 22.52V24.44H2946.04C2946.57 28.472 2949.64 31.304 2953.87 31.304C2956.75 31.304 2959.34 30.056 2960.73 27.464L2964.38 29.336C2962.32 33.368 2958.52 35.528 2953.92 35.528ZM2946.24 21.368H2960.11C2959.92 17.624 2957.18 15.08 2953.29 15.08C2949.31 15.08 2946.72 17.864 2946.24 21.368ZM2975.29 35H2970.53V20.984C2970.53 15.272 2973.8 11 2979.94 11C2981.43 11 2982.97 11.288 2984.17 11.864V16.568C2983.01 15.896 2981.67 15.56 2980.37 15.56C2977.21 15.56 2975.29 17.72 2975.29 21.176V35ZM2996.32 35.528C2991.96 35.528 2988.6 33.8 2986.77 30.296L2990.42 28.28C2991.62 30.632 2993.54 31.496 2996.13 31.496C2998.82 31.496 3000.88 30.392 3000.88 28.328C3000.88 23.384 2987.4 27.128 2987.4 18.152C2987.4 14.024 2991.04 11 2996.18 11C3000.55 11 3003.52 13.016 3005.01 15.752L3001.36 17.816C3000.36 15.752 2998.44 15.032 2996.28 15.032C2994.07 15.032 2992.15 16.184 2992.15 18.056C2992.15 22.856 3005.64 19.352 3005.64 28.232C3005.64 32.696 3001.32 35.528 2996.32 35.528ZM3035.75 35.624C3029.9 35.624 3026.78 31.928 3026.78 26.552V15.608H3022.12V11.48H3026.78V5.384H3031.53V11.48H3040.55V15.608H3031.53V26.408C3031.53 29.48 3033.35 31.304 3036.18 31.304C3037.72 31.304 3039.4 30.728 3040.55 29.912V34.28C3039.35 35.096 3037.48 35.624 3035.75 35.624ZM3052.37 35H3047.62V0.679998H3052.37V14.12C3054.19 12.152 3057.03 10.904 3060.19 10.904C3067.11 10.904 3070.99 15.512 3070.99 22.712V35H3066.24V23.192C3066.24 19.016 3063.94 15.416 3059.47 15.416C3055.3 15.416 3052.37 18.776 3052.37 23.336V35ZM3082.54 35H3077.78V20.984C3077.78 15.272 3081.05 11 3087.19 11C3088.68 11 3090.22 11.288 3091.42 11.864V16.568C3090.26 15.896 3088.92 15.56 3087.62 15.56C3084.46 15.56 3082.54 17.72 3082.54 21.176V35ZM3105.98 35.576C3098.88 35.576 3093.4 30.008 3093.4 23.192C3093.4 16.424 3098.92 10.904 3105.98 10.904C3113.08 10.904 3118.46 16.472 3118.46 23.192C3118.46 30.008 3113.04 35.576 3105.98 35.576ZM3105.98 31.064C3110.35 31.064 3113.71 27.512 3113.71 23.24C3113.71 18.92 3110.35 15.368 3105.98 15.368C3101.56 15.368 3098.16 18.92 3098.16 23.24C3098.16 27.512 3101.56 31.064 3105.98 31.064ZM3135 30.968C3139.37 30.968 3141.77 27.176 3141.77 22.808V11.48H3146.52V23.384C3146.52 30.2 3142.39 35.576 3135 35.576C3127.7 35.576 3123.58 30.152 3123.58 23.336V11.48H3128.33V22.856C3128.33 27.176 3130.68 30.968 3135 30.968ZM3163.77 46.376C3158.68 46.376 3154.45 44.168 3152.29 39.992L3156.28 37.832C3157.67 40.376 3160.26 42.008 3163.67 42.008C3168.61 42.008 3171.97 38.456 3171.97 32.936V31.064C3170.44 33.512 3167.56 35.336 3163.62 35.336C3156.95 35.336 3151.67 30.056 3151.67 23.144C3151.67 16.424 3157.05 10.904 3164.2 10.904C3171.3 10.904 3176.73 16.184 3176.73 23.192V32.888C3176.73 41.048 3171.25 46.376 3163.77 46.376ZM3164.15 30.872C3168.47 30.872 3171.93 27.416 3171.93 23.096C3171.93 18.776 3168.47 15.416 3164.15 15.416C3159.88 15.416 3156.37 18.776 3156.37 23.096C3156.37 27.416 3159.88 30.872 3164.15 30.872ZM3189.25 35H3184.49V0.679998H3189.25V14.12C3191.07 12.152 3193.9 10.904 3197.07 10.904C3203.98 10.904 3207.87 15.512 3207.87 22.712V35H3203.12V23.192C3203.12 19.016 3200.81 15.416 3196.35 15.416C3192.17 15.416 3189.25 18.776 3189.25 23.336V35ZM3239.34 35.528C3232.19 35.528 3226.86 30.344 3226.86 23.096C3226.86 16.328 3231.71 10.808 3238.76 10.808C3245.87 10.808 3250.28 15.944 3250.28 22.52V24.44H3231.47C3231.99 28.472 3235.07 31.304 3239.29 31.304C3242.17 31.304 3244.76 30.056 3246.15 27.464L3249.8 29.336C3247.74 33.368 3243.95 35.528 3239.34 35.528ZM3231.66 21.368H3245.53C3245.34 17.624 3242.6 15.08 3238.71 15.08C3234.73 15.08 3232.14 17.864 3231.66 21.368ZM3260.24 35H3254.86L3260.81 26.072C3261.53 25.016 3261.87 24.104 3261.87 23.24C3261.87 22.424 3261.58 21.608 3260.91 20.6L3254.86 11.48H3260.24L3265.04 18.632C3265.52 19.352 3265.9 20.168 3266.09 20.984H3268.64C3268.88 20.168 3269.21 19.352 3269.69 18.632L3274.45 11.48H3279.87L3273.82 20.6C3273.15 21.608 3272.86 22.424 3272.86 23.24C3272.86 24.104 3273.2 25.016 3273.92 26.072L3279.87 35H3274.49L3269.69 27.896C3269.17 27.08 3268.78 26.216 3268.54 25.304H3266.19C3265.95 26.216 3265.57 27.08 3265.04 27.896L3260.24 35ZM3290.8 45.8H3286.05V23.192C3286.05 16.184 3291.47 10.904 3298.58 10.904C3305.68 10.904 3311.06 16.472 3311.06 23.192C3311.06 30.296 3305.92 35.576 3298.77 35.576C3295.6 35.576 3292.72 34.184 3290.8 32.072V45.8ZM3298.58 31.112C3302.94 31.112 3306.3 27.512 3306.3 23.24C3306.3 18.92 3302.94 15.416 3298.58 15.416C3294.16 15.416 3290.8 18.92 3290.8 23.24C3290.8 27.512 3294.16 31.112 3298.58 31.112ZM3327.42 35.528C3320.26 35.528 3314.94 30.344 3314.94 23.096C3314.94 16.328 3319.78 10.808 3326.84 10.808C3333.94 10.808 3338.36 15.944 3338.36 22.52V24.44H3319.54C3320.07 28.472 3323.14 31.304 3327.37 31.304C3330.25 31.304 3332.84 30.056 3334.23 27.464L3337.88 29.336C3335.82 33.368 3332.02 35.528 3327.42 35.528ZM3319.74 21.368H3333.61C3333.42 17.624 3330.68 15.08 3326.79 15.08C3322.81 15.08 3320.22 17.864 3319.74 21.368ZM3348.79 35H3344.03V20.984C3344.03 15.272 3347.3 11 3353.44 11C3354.93 11 3356.47 11.288 3357.67 11.864V16.568C3356.51 15.896 3355.17 15.56 3353.87 15.56C3350.71 15.56 3348.79 17.72 3348.79 21.176V35ZM3363.75 6.824C3362.02 6.824 3360.63 5.432 3360.63 3.704C3360.63 1.976 3362.02 0.535997 3363.75 0.535997C3365.48 0.535997 3366.82 1.976 3366.82 3.704C3366.82 5.432 3365.48 6.824 3363.75 6.824ZM3361.4 11.48H3366.15V35H3361.4V11.48ZM3384.88 35.528C3377.73 35.528 3372.4 30.344 3372.4 23.096C3372.4 16.328 3377.25 10.808 3384.31 10.808C3391.41 10.808 3395.83 15.944 3395.83 22.52V24.44H3377.01C3377.54 28.472 3380.61 31.304 3384.84 31.304C3387.72 31.304 3390.31 30.056 3391.7 27.464L3395.35 29.336C3393.28 33.368 3389.49 35.528 3384.88 35.528ZM3377.2 21.368H3391.08C3390.88 17.624 3388.15 15.08 3384.26 15.08C3380.28 15.08 3377.68 17.864 3377.2 21.368ZM3413.17 15.464C3408.56 15.464 3406.25 19.256 3406.25 23.624V35H3401.5V23.144C3401.5 16.28 3405.58 10.904 3413.17 10.904C3420.85 10.904 3425.02 16.28 3425.02 23.096V35H3420.27V23.672C3420.27 19.256 3417.87 15.464 3413.17 15.464ZM3442.63 35.528C3435.86 35.624 3430.34 30.008 3430.34 23.192C3430.34 16.424 3435.86 10.856 3442.63 10.904C3446.95 10.904 3450.93 12.872 3453.09 17.096L3449.16 19.304C3447.77 16.76 3445.41 15.416 3442.63 15.416C3438.5 15.416 3435.09 18.92 3435.09 23.192C3435.09 27.512 3438.5 31.064 3442.63 31.064C3445.41 31.064 3447.77 29.72 3449.16 27.176L3453.09 29.336C3450.93 33.608 3446.95 35.528 3442.63 35.528ZM3468.93 35.528C3461.78 35.528 3456.45 30.344 3456.45 23.096C3456.45 16.328 3461.3 10.808 3468.36 10.808C3475.46 10.808 3479.88 15.944 3479.88 22.52V24.44H3461.06C3461.59 28.472 3464.66 31.304 3468.88 31.304C3471.76 31.304 3474.36 30.056 3475.75 27.464L3479.4 29.336C3477.33 33.368 3473.54 35.528 3468.93 35.528ZM3461.25 21.368H3475.12C3474.93 17.624 3472.2 15.08 3468.31 15.08C3464.32 15.08 3461.73 17.864 3461.25 21.368ZM3494 35.528C3489.63 35.528 3486.27 33.8 3484.44 30.296L3488.09 28.28C3489.29 30.632 3491.21 31.496 3493.8 31.496C3496.49 31.496 3498.56 30.392 3498.56 28.328C3498.56 23.384 3485.07 27.128 3485.07 18.152C3485.07 14.024 3488.72 11 3493.85 11C3498.22 11 3501.2 13.016 3502.68 15.752L3499.04 17.816C3498.03 15.752 3496.11 15.032 3493.95 15.032C3491.74 15.032 3489.82 16.184 3489.82 18.056C3489.82 22.856 3503.31 19.352 3503.31 28.232C3503.31 32.696 3498.99 35.528 3494 35.528ZM3512.59 35.432C3510.86 35.432 3509.47 34.04 3509.47 32.312C3509.47 30.584 3510.86 29.24 3512.59 29.24C3514.31 29.24 3515.71 30.584 3515.71 32.312C3515.71 34.04 3514.31 35.432 3512.59 35.432ZM3538.08 2.84H3542.98V35H3538.08V2.84ZM3575.18 35.576C3568.37 35.576 3563.37 30.008 3563.37 23.192C3563.37 16.472 3568.75 10.904 3575.9 10.904C3583.01 10.904 3588.43 16.184 3588.43 23.192V35H3583.92V30.872C3582.14 33.752 3579.02 35.576 3575.18 35.576ZM3575.9 31.064C3580.32 31.064 3583.68 27.512 3583.68 23.24C3583.68 18.92 3580.32 15.368 3575.9 15.368C3571.53 15.368 3568.13 18.92 3568.13 23.24C3568.13 27.512 3571.53 31.064 3575.9 31.064ZM3596.2 0.679998H3600.95V35H3596.2V0.679998ZM3617.14 35.528C3612.77 35.528 3609.41 33.8 3607.59 30.296L3611.23 28.28C3612.43 30.632 3614.35 31.496 3616.95 31.496C3619.63 31.496 3621.7 30.392 3621.7 28.328C3621.7 23.384 3608.21 27.128 3608.21 18.152C3608.21 14.024 3611.86 11 3616.99 11C3621.36 11 3624.34 13.016 3625.83 15.752L3622.18 17.816C3621.17 15.752 3619.25 15.032 3617.09 15.032C3614.88 15.032 3612.96 16.184 3612.96 18.056C3612.96 22.856 3626.45 19.352 3626.45 28.232C3626.45 32.696 3622.13 35.528 3617.14 35.528ZM3643.26 35.576C3636.16 35.576 3630.69 30.008 3630.69 23.192C3630.69 16.424 3636.21 10.904 3643.26 10.904C3650.37 10.904 3655.74 16.472 3655.74 23.192C3655.74 30.008 3650.32 35.576 3643.26 35.576ZM3643.26 31.064C3647.63 31.064 3650.99 27.512 3650.99 23.24C3650.99 18.92 3647.63 15.368 3643.26 15.368C3638.85 15.368 3635.44 18.92 3635.44 23.24C3635.44 27.512 3638.85 31.064 3643.26 31.064ZM3680.45 35H3675.7V0.679998H3680.45V14.12C3682.27 12.152 3685.1 10.904 3688.27 10.904C3695.18 10.904 3699.07 15.512 3699.07 22.712V35H3694.32V23.192C3694.32 19.016 3692.02 15.416 3687.55 15.416C3683.38 15.416 3680.45 18.776 3680.45 23.336V35ZM3716.18 35.576C3709.37 35.576 3704.37 30.008 3704.37 23.192C3704.37 16.472 3709.75 10.904 3716.9 10.904C3724.01 10.904 3729.43 16.184 3729.43 23.192V35H3724.92V30.872C3723.14 33.752 3720.02 35.576 3716.18 35.576ZM3716.9 31.064C3721.32 31.064 3724.68 27.512 3724.68 23.24C3724.68 18.92 3721.32 15.368 3716.9 15.368C3712.53 15.368 3709.13 18.92 3709.13 23.24C3709.13 27.512 3712.53 31.064 3716.9 31.064ZM3740.42 31.928L3732.84 11.48H3737.93L3744.84 30.632C3744.89 30.872 3745.08 31.112 3745.37 31.112C3745.7 31.112 3745.9 30.872 3745.94 30.632L3752.86 11.48H3757.9L3750.26 31.928C3749.35 34.376 3747.67 35.624 3745.37 35.624C3743.16 35.624 3741.34 34.376 3740.42 31.928ZM3772.45 35.528C3765.29 35.528 3759.97 30.344 3759.97 23.096C3759.97 16.328 3764.81 10.808 3771.87 10.808C3778.97 10.808 3783.39 15.944 3783.39 22.52V24.44H3764.57C3765.1 28.472 3768.17 31.304 3772.4 31.304C3775.28 31.304 3777.87 30.056 3779.26 27.464L3782.91 29.336C3780.85 33.368 3777.05 35.528 3772.45 35.528ZM3764.77 21.368H3778.64C3778.45 17.624 3775.71 15.08 3771.82 15.08C3767.84 15.08 3765.25 17.864 3764.77 21.368ZM3813.07 35.576C3806.26 35.576 3801.26 30.008 3801.26 23.192C3801.26 16.472 3806.64 10.904 3813.79 10.904C3820.9 10.904 3826.32 16.184 3826.32 23.192V35H3821.81V30.872C3820.03 33.752 3816.91 35.576 3813.07 35.576ZM3813.79 31.064C3818.21 31.064 3821.57 27.512 3821.57 23.24C3821.57 18.92 3818.21 15.368 3813.79 15.368C3809.42 15.368 3806.02 18.92 3806.02 23.24C3806.02 27.512 3809.42 31.064 3813.79 31.064ZM3851.57 45.8H3846.81V23.192C3846.81 16.184 3852.24 10.904 3859.34 10.904C3866.45 10.904 3871.82 16.472 3871.82 23.192C3871.82 30.296 3866.69 35.576 3859.53 35.576C3856.37 35.576 3853.49 34.184 3851.57 32.072V45.8ZM3859.34 31.112C3863.71 31.112 3867.07 27.512 3867.07 23.24C3867.07 18.92 3863.71 15.416 3859.34 15.416C3854.93 15.416 3851.57 18.92 3851.57 23.24C3851.57 27.512 3854.93 31.112 3859.34 31.112ZM3887.51 35.576C3880.69 35.576 3875.7 30.008 3875.7 23.192C3875.7 16.472 3881.08 10.904 3888.23 10.904C3895.33 10.904 3900.76 16.184 3900.76 23.192V35H3896.25V30.872C3894.47 33.752 3891.35 35.576 3887.51 35.576ZM3888.23 31.064C3892.65 31.064 3896.01 27.512 3896.01 23.24C3896.01 18.92 3892.65 15.368 3888.23 15.368C3883.86 15.368 3880.45 18.92 3880.45 23.24C3880.45 27.512 3883.86 31.064 3888.23 31.064ZM3916.01 35.528C3911.64 35.528 3908.28 33.8 3906.46 30.296L3910.11 28.28C3911.31 30.632 3913.23 31.496 3915.82 31.496C3918.51 31.496 3920.57 30.392 3920.57 28.328C3920.57 23.384 3907.08 27.128 3907.08 18.152C3907.08 14.024 3910.73 11 3915.87 11C3920.24 11 3923.21 13.016 3924.7 15.752L3921.05 17.816C3920.04 15.752 3918.12 15.032 3915.96 15.032C3913.76 15.032 3911.84 16.184 3911.84 18.056C3911.84 22.856 3925.32 19.352 3925.32 28.232C3925.32 32.696 3921 35.528 3916.01 35.528ZM3939.5 35.528C3935.13 35.528 3931.77 33.8 3929.94 30.296L3933.59 28.28C3934.79 30.632 3936.71 31.496 3939.3 31.496C3941.99 31.496 3944.06 30.392 3944.06 28.328C3944.06 23.384 3930.57 27.128 3930.57 18.152C3930.57 14.024 3934.22 11 3939.35 11C3943.72 11 3946.7 13.016 3948.18 15.752L3944.54 17.816C3943.53 15.752 3941.61 15.032 3939.45 15.032C3937.24 15.032 3935.32 16.184 3935.32 18.056C3935.32 22.856 3948.81 19.352 3948.81 28.232C3948.81 32.696 3944.49 35.528 3939.5 35.528ZM3957.85 6.824C3956.12 6.824 3954.73 5.432 3954.73 3.704C3954.73 1.976 3956.12 0.535997 3957.85 0.535997C3959.57 0.535997 3960.92 1.976 3960.92 3.704C3960.92 5.432 3959.57 6.824 3957.85 6.824ZM3955.49 11.48H3960.25V35H3955.49V11.48ZM3979.07 35.576C3971.97 35.576 3966.5 30.008 3966.5 23.192C3966.5 16.424 3972.02 10.904 3979.07 10.904C3986.18 10.904 3991.55 16.472 3991.55 23.192C3991.55 30.008 3986.13 35.576 3979.07 35.576ZM3979.07 31.064C3983.44 31.064 3986.8 27.512 3986.8 23.24C3986.8 18.92 3983.44 15.368 3979.07 15.368C3974.66 15.368 3971.25 18.92 3971.25 23.24C3971.25 27.512 3974.66 31.064 3979.07 31.064ZM4008.53 15.464C4003.92 15.464 4001.61 19.256 4001.61 23.624V35H3996.86V23.144C3996.86 16.28 4000.94 10.904 4008.53 10.904C4016.21 10.904 4020.38 16.28 4020.38 23.096V35H4015.63V23.672C4015.63 19.256 4013.23 15.464 4008.53 15.464ZM4048.12 35H4043.37V15.608H4038.91V11.48H4043.37V9.032C4043.37 4.04 4046.49 0.295998 4052.4 0.295998C4053.98 0.295998 4055.47 0.584 4056.67 1.16V5.672C4055.56 5 4054.17 4.616 4052.83 4.616C4049.9 4.616 4048.12 5.912 4048.12 9.032V11.48H4056.38V15.608H4048.12V35ZM4071.14 35.576C4064.03 35.576 4058.56 30.008 4058.56 23.192C4058.56 16.424 4064.08 10.904 4071.14 10.904C4078.24 10.904 4083.62 16.472 4083.62 23.192C4083.62 30.008 4078.19 35.576 4071.14 35.576ZM4071.14 31.064C4075.5 31.064 4078.86 27.512 4078.86 23.24C4078.86 18.92 4075.5 15.368 4071.14 15.368C4066.72 15.368 4063.31 18.92 4063.31 23.24C4063.31 27.512 4066.72 31.064 4071.14 31.064ZM4093.68 35H4088.92V20.984C4088.92 15.272 4092.19 11 4098.33 11C4099.82 11 4101.36 11.288 4102.56 11.864V16.568C4101.4 15.896 4100.06 15.56 4098.76 15.56C4095.6 15.56 4093.68 17.72 4093.68 21.176V35ZM4118.92 7.352V2.84H4134.62C4137.69 2.84 4139.37 4.664 4139.37 6.824C4139.37 8.312 4138.6 9.656 4137.11 11L4130.49 16.664C4130.01 17 4129.87 17.048 4129.87 17.24C4129.87 17.288 4129.91 17.24 4130.01 17.24H4132.6C4137.07 17.24 4140.47 20.792 4140.47 25.688C4140.47 31.448 4135.67 35.624 4129.43 35.624C4124.15 35.624 4120.12 33.272 4118.01 28.808L4122.28 26.552C4123.53 29.48 4126.07 31.112 4129.48 31.112C4132.84 31.112 4135.67 28.904 4135.67 25.688C4135.67 22.712 4133.51 20.984 4130.15 20.984H4128.09C4126.03 20.984 4124.83 19.496 4124.83 18.008C4124.83 16.904 4125.4 15.848 4126.41 14.936L4133.37 9.032C4133.8 8.696 4133.99 8.456 4133.99 8.024C4133.99 7.592 4133.71 7.352 4133.23 7.352H4118.92ZM4176.72 18.776C4176.72 28.856 4169.18 35 4159.24 35H4148.35V2.84H4159.48C4169.8 2.84 4176.72 9.224 4176.72 18.776ZM4171.68 18.776C4171.68 11.96 4166.68 7.352 4159.48 7.352H4153.24V30.536H4159.24C4166.25 30.536 4171.68 26.12 4171.68 18.776ZM4194.59 35L4203.37 6.728C4204.33 3.704 4206.68 2.264 4209.37 2.264C4212.11 2.264 4214.46 3.704 4215.42 6.728L4224.2 35H4219.21L4216.86 27.128L4201.88 27.176L4199.53 35H4194.59ZM4207.6 8.168L4203.23 22.712H4215.56L4211.24 8.168C4210.91 7.16 4210.33 6.68 4209.42 6.68C4208.46 6.68 4207.88 7.16 4207.6 8.168ZM4241.03 15.464C4236.42 15.464 4234.11 19.256 4234.11 23.624V35H4229.36V23.144C4229.36 16.28 4233.44 10.904 4241.03 10.904C4248.71 10.904 4252.88 16.28 4252.88 23.096V35H4248.13V23.672C4248.13 19.256 4245.73 15.464 4241.03 15.464ZM4263 6.824C4261.27 6.824 4259.88 5.432 4259.88 3.704C4259.88 1.976 4261.27 0.535997 4263 0.535997C4264.73 0.535997 4266.07 1.976 4266.07 3.704C4266.07 5.432 4264.73 6.824 4263 6.824ZM4260.65 11.48H4265.4V35H4260.65V11.48ZM4302.33 10.808C4309.43 10.808 4313.27 16.088 4313.27 22.616V35H4308.52V23.384C4308.52 19.112 4306.41 15.368 4301.99 15.368C4297.72 15.368 4295.56 18.968 4295.56 23.288V35H4290.81V23.288C4290.81 18.968 4288.65 15.368 4284.28 15.368C4279.86 15.368 4277.89 19.112 4277.89 23.384V35H4273.14V22.664C4273.14 16.088 4276.89 10.808 4283.94 10.808C4288.65 10.808 4292.05 13.208 4293.25 16.856C4294.55 13.208 4297.86 10.808 4302.33 10.808ZM4330.38 35.576C4323.57 35.576 4318.58 30.008 4318.58 23.192C4318.58 16.472 4323.95 10.904 4331.1 10.904C4338.21 10.904 4343.63 16.184 4343.63 23.192V35H4339.12V30.872C4337.34 33.752 4334.22 35.576 4330.38 35.576ZM4331.1 31.064C4335.52 31.064 4338.88 27.512 4338.88 23.24C4338.88 18.92 4335.52 15.368 4331.1 15.368C4326.74 15.368 4323.33 18.92 4323.33 23.24C4323.33 27.512 4326.74 31.064 4331.1 31.064ZM4361.14 35.624C4355.29 35.624 4352.17 31.928 4352.17 26.552V15.608H4347.51V11.48H4352.17V5.384H4356.92V11.48H4365.94V15.608H4356.92V26.408C4356.92 29.48 4358.74 31.304 4361.58 31.304C4363.11 31.304 4364.79 30.728 4365.94 29.912V34.28C4364.74 35.096 4362.87 35.624 4361.14 35.624ZM4375.36 6.824C4373.63 6.824 4372.24 5.432 4372.24 3.704C4372.24 1.976 4373.63 0.535997 4375.36 0.535997C4377.09 0.535997 4378.43 1.976 4378.43 3.704C4378.43 5.432 4377.09 6.824 4375.36 6.824ZM4373.01 11.48H4377.76V35H4373.01V11.48ZM4396.59 35.576C4389.49 35.576 4384.01 30.008 4384.01 23.192C4384.01 16.424 4389.53 10.904 4396.59 10.904C4403.69 10.904 4409.07 16.472 4409.07 23.192C4409.07 30.008 4403.65 35.576 4396.59 35.576ZM4396.59 31.064C4400.96 31.064 4404.32 27.512 4404.32 23.24C4404.32 18.92 4400.96 15.368 4396.59 15.368C4392.17 15.368 4388.77 18.92 4388.77 23.24C4388.77 27.512 4392.17 31.064 4396.59 31.064ZM4426.04 15.464C4421.43 15.464 4419.13 19.256 4419.13 23.624V35H4414.38V23.144C4414.38 16.28 4418.46 10.904 4426.04 10.904C4433.72 10.904 4437.9 16.28 4437.9 23.096V35H4433.14V23.672C4433.14 19.256 4430.74 15.464 4426.04 15.464ZM4468.71 35.576C4461.9 35.576 4456.9 30.008 4456.9 23.192C4456.9 16.472 4462.28 10.904 4469.43 10.904C4476.54 10.904 4481.96 16.184 4481.96 23.192V35H4477.45V30.872C4475.67 33.752 4472.55 35.576 4468.71 35.576ZM4469.43 31.064C4473.85 31.064 4477.21 27.512 4477.21 23.24C4477.21 18.92 4473.85 15.368 4469.43 15.368C4465.06 15.368 4461.66 18.92 4461.66 23.24C4461.66 27.512 4465.06 31.064 4469.43 31.064ZM4500.43 15.464C4495.82 15.464 4493.52 19.256 4493.52 23.624V35H4488.77V23.144C4488.77 16.28 4492.85 10.904 4500.43 10.904C4508.11 10.904 4512.29 16.28 4512.29 23.096V35H4507.54V23.672C4507.54 19.256 4505.14 15.464 4500.43 15.464ZM4530.14 35.576C4522.98 35.576 4517.61 30.056 4517.61 23.288C4517.61 16.136 4522.79 10.904 4529.9 10.904C4533.06 10.904 4535.94 12.296 4537.86 14.408L4537.91 0.679998H4542.66V23.288C4542.66 30.248 4537.24 35.576 4530.14 35.576ZM4530.14 31.112C4534.55 31.112 4537.91 27.56 4537.91 23.24C4537.91 18.968 4534.55 15.416 4530.14 15.416C4525.77 15.416 4522.36 18.968 4522.36 23.24C4522.36 27.56 4525.77 31.112 4530.14 31.112ZM4567.81 31.928L4560.23 11.48H4565.32L4572.23 30.632C4572.28 30.872 4572.47 31.112 4572.76 31.112C4573.09 31.112 4573.29 30.872 4573.33 30.632L4580.25 11.48H4585.29L4577.65 31.928C4576.74 34.376 4575.06 35.624 4572.76 35.624C4570.55 35.624 4568.73 34.376 4567.81 31.928ZM4592.49 6.824C4590.76 6.824 4589.37 5.432 4589.37 3.704C4589.37 1.976 4590.76 0.535997 4592.49 0.535997C4594.21 0.535997 4595.56 1.976 4595.56 3.704C4595.56 5.432 4594.21 6.824 4592.49 6.824ZM4590.13 11.48H4594.89V35H4590.13V11.48ZM4613.67 35.576C4606.51 35.576 4601.14 30.056 4601.14 23.288C4601.14 16.136 4606.32 10.904 4613.43 10.904C4616.59 10.904 4619.47 12.296 4621.39 14.408L4621.44 0.679998H4626.19V23.288C4626.19 30.248 4620.77 35.576 4613.67 35.576ZM4613.67 31.112C4618.08 31.112 4621.44 27.56 4621.44 23.24C4621.44 18.968 4618.08 15.416 4613.67 15.416C4609.3 15.416 4605.89 18.968 4605.89 23.24C4605.89 27.56 4609.3 31.112 4613.67 31.112ZM4643.99 35.528C4636.84 35.528 4631.51 30.344 4631.51 23.096C4631.51 16.328 4636.36 10.808 4643.42 10.808C4650.52 10.808 4654.94 15.944 4654.94 22.52V24.44H4636.12C4636.65 28.472 4639.72 31.304 4643.95 31.304C4646.83 31.304 4649.42 30.056 4650.81 27.464L4654.46 29.336C4652.39 33.368 4648.6 35.528 4643.99 35.528ZM4636.31 21.368H4650.19C4649.99 17.624 4647.26 15.08 4643.37 15.08C4639.39 15.08 4636.79 17.864 4636.31 21.368ZM4671.7 35.576C4664.6 35.576 4659.12 30.008 4659.12 23.192C4659.12 16.424 4664.64 10.904 4671.7 10.904C4678.8 10.904 4684.18 16.472 4684.18 23.192C4684.18 30.008 4678.76 35.576 4671.7 35.576ZM4671.7 31.064C4676.07 31.064 4679.43 27.512 4679.43 23.24C4679.43 18.92 4676.07 15.368 4671.7 15.368C4667.28 15.368 4663.88 18.92 4663.88 23.24C4663.88 27.512 4667.28 31.064 4671.7 31.064ZM4714.17 35.528C4707.01 35.528 4701.69 30.344 4701.69 23.096C4701.69 16.328 4706.53 10.808 4713.59 10.808C4720.69 10.808 4725.11 15.944 4725.11 22.52V24.44H4706.29C4706.82 28.472 4709.89 31.304 4714.12 31.304C4717 31.304 4719.59 30.056 4720.98 27.464L4724.63 29.336C4722.57 33.368 4718.77 35.528 4714.17 35.528ZM4706.49 21.368H4720.36C4720.17 17.624 4717.43 15.08 4713.54 15.08C4709.56 15.08 4706.97 17.864 4706.49 21.368ZM4741.82 35.576C4734.67 35.576 4729.3 30.056 4729.3 23.288C4729.3 16.136 4734.48 10.904 4741.58 10.904C4744.75 10.904 4747.63 12.296 4749.55 14.408L4749.6 0.679998H4754.35V23.288C4754.35 30.248 4748.93 35.576 4741.82 35.576ZM4741.82 31.112C4746.24 31.112 4749.6 27.56 4749.6 23.24C4749.6 18.968 4746.24 15.416 4741.82 15.416C4737.46 15.416 4734.05 18.968 4734.05 23.24C4734.05 27.56 4737.46 31.112 4741.82 31.112ZM4764.47 6.824C4762.74 6.824 4761.35 5.432 4761.35 3.704C4761.35 1.976 4762.74 0.535997 4764.47 0.535997C4766.2 0.535997 4767.54 1.976 4767.54 3.704C4767.54 5.432 4766.2 6.824 4764.47 6.824ZM4762.12 11.48H4766.87V35H4762.12V11.48ZM4785.32 35.624C4779.46 35.624 4776.34 31.928 4776.34 26.552V15.608H4771.68V11.48H4776.34V5.384H4781.09V11.48H4790.12V15.608H4781.09V26.408C4781.09 29.48 4782.92 31.304 4785.75 31.304C4787.28 31.304 4788.96 30.728 4790.12 29.912V34.28C4788.92 35.096 4787.04 35.624 4785.32 35.624ZM4799.53 6.824C4797.8 6.824 4796.41 5.432 4796.41 3.704C4796.41 1.976 4797.8 0.535997 4799.53 0.535997C4801.26 0.535997 4802.6 1.976 4802.6 3.704C4802.6 5.432 4801.26 6.824 4799.53 6.824ZM4797.18 11.48H4801.93V35H4797.18V11.48ZM4821.34 15.464C4816.73 15.464 4814.43 19.256 4814.43 23.624V35H4809.67V23.144C4809.67 16.28 4813.75 10.904 4821.34 10.904C4829.02 10.904 4833.19 16.28 4833.19 23.096V35H4828.44V23.672C4828.44 19.256 4826.04 15.464 4821.34 15.464ZM4850.61 46.376C4845.52 46.376 4841.3 44.168 4839.14 39.992L4843.12 37.832C4844.51 40.376 4847.11 42.008 4850.51 42.008C4855.46 42.008 4858.82 38.456 4858.82 32.936V31.064C4857.28 33.512 4854.4 35.336 4850.47 35.336C4843.79 35.336 4838.51 30.056 4838.51 23.144C4838.51 16.424 4843.89 10.904 4851.04 10.904C4858.15 10.904 4863.57 16.184 4863.57 23.192V32.888C4863.57 41.048 4858.1 46.376 4850.61 46.376ZM4850.99 30.872C4855.31 30.872 4858.77 27.416 4858.77 23.096C4858.77 18.776 4855.31 15.416 4850.99 15.416C4846.72 15.416 4843.22 18.776 4843.22 23.096C4843.22 27.416 4846.72 30.872 4850.99 30.872ZM4873.93 35.432C4872.2 35.432 4870.81 34.04 4870.81 32.312C4870.81 30.584 4872.2 29.24 4873.93 29.24C4875.66 29.24 4877.05 30.584 4877.05 32.312C4877.05 34.04 4875.66 35.432 4873.93 35.432Z" fill="#5262D1"/>
</svg>
