<svg width="382" height="370" viewBox="0 0 382 370" fill="none" xmlns="http://www.w3.org/2000/svg">
<rect x="45.8167" y="28" width="232.479" height="64.403" rx="32.2015" transform="rotate(1.61639 45.8167 28)" fill="#C5F21D"/>
<path d="M129.5 257L178.431 341.75H80.5697L129.5 257Z" fill="#CAD2F5"/>
<rect x="73.1364" y="112" width="82" height="159" transform="rotate(27.3856 73.1364 112)" fill="#EC89FD"/>
<circle cx="264" cy="223" r="111" fill="#5262D1"/>
<path d="M259.5 203C259.5 212.037 257.279 220.194 253.715 226.075C250.145 231.966 245.281 235.5 240 235.5C234.719 235.5 229.856 231.966 226.286 226.075C222.721 220.194 220.5 212.037 220.5 203C220.5 193.963 222.721 185.806 226.286 179.925C229.856 174.034 234.719 170.5 240 170.5C245.281 170.5 250.145 174.034 253.715 179.925C257.279 185.806 259.5 193.963 259.5 203Z" fill="white" stroke="black"/>
<path d="M289.5 203C289.5 212.037 287.279 220.194 283.715 226.075C280.145 231.966 275.281 235.5 270 235.5C264.719 235.5 259.856 231.966 256.286 226.075C252.721 220.194 250.5 212.037 250.5 203C250.5 193.963 252.721 185.806 256.286 179.925C259.856 174.034 264.719 170.5 270 170.5C275.281 170.5 280.145 174.034 283.715 179.925C287.279 185.806 289.5 193.963 289.5 203Z" fill="white" stroke="black"/>
<ellipse cx="234.852" cy="224.255" rx="8" ry="13" transform="rotate(-38.1607 234.852 224.255)" fill="black"/>
<ellipse cx="264.247" cy="223.039" rx="8" ry="13" transform="rotate(-21.7432 264.247 223.039)" fill="black"/>
<path d="M72.2209 197.944C83.1376 203.702 87.3782 217.081 81.7137 227.821C76.0492 238.561 62.6129 242.617 51.6962 236.859C40.7795 231.101 36.5389 217.722 42.2034 206.982C47.8678 196.242 61.3042 192.186 72.2209 197.944Z" fill="white" stroke="black"/>
<path d="M87.964 168.095C98.8807 173.852 103.121 187.232 97.4569 197.971C91.7924 208.711 78.356 212.767 67.4394 207.009C56.5227 201.251 52.282 187.872 57.9465 177.133C63.611 166.393 77.0473 162.337 87.964 168.095Z" fill="white" stroke="black"/>
<ellipse cx="11.0869" cy="11.9766" rx="11.0869" ry="11.9766" transform="matrix(0.943625 0.331017 0.118709 0.992929 39.0424 209.687)" fill="black"/>
<ellipse cx="11.0869" cy="11.9766" rx="11.0869" ry="11.9766" transform="matrix(0.958748 0.284258 0.167347 0.985898 54.2925 180.289)" fill="black"/>
<path d="M150.72 42.3046C161.636 48.0624 165.877 61.4415 160.213 72.1813C154.548 82.9212 141.112 86.977 130.195 81.2192C119.278 75.4615 115.038 62.0823 120.702 51.3425C126.367 40.6027 139.803 36.5468 150.72 42.3046Z" fill="white" stroke="black"/>
<path d="M185.457 40.7642C197.799 40.7642 207.792 50.6199 207.792 62.762C207.792 74.904 197.799 84.7598 185.457 84.7598C173.115 84.7598 163.123 74.904 163.123 62.762C163.123 50.6199 173.115 40.7642 185.457 40.7642Z" fill="white" stroke="black"/>
<path d="M185.36 38.7245C198.154 39.3878 208.026 50.1654 207.632 62.9097C200.925 62.5619 198.644 62.4438 196.478 62.3316L196.359 62.3254C194.182 62.2126 192.041 62.1017 185.541 61.7647C179.316 61.442 177.09 61.3264 174.726 61.2037C172.104 61.0677 169.311 60.9227 160.706 60.4765C161.631 47.7599 172.565 38.0611 185.36 38.7245Z" fill="black" stroke="black"/>
<path d="M140.949 34.952C153.743 35.6154 163.616 46.393 163.221 59.1372C156.514 58.7894 154.233 58.6713 152.067 58.5591L151.948 58.5529C149.771 58.4402 147.63 58.3293 141.13 57.9922C134.906 57.6695 132.68 57.554 130.315 57.4313C127.693 57.2952 124.901 57.1503 116.295 56.7041C117.221 43.9874 128.155 34.2886 140.949 34.952Z" fill="black" stroke="black"/>
<ellipse cx="8.29675" cy="8.38607" rx="8.29675" ry="8.38607" transform="matrix(0.984129 -0.177457 0.592995 0.805206 121.067 70.7305)" fill="black"/>
<ellipse cx="8.29675" cy="8.38607" rx="8.29675" ry="8.38607" transform="matrix(0.984129 -0.177457 0.592995 0.805206 168.764 73.1543)" fill="black"/>
<path d="M382 63.4352H355.851L374.35 44.9361L365.064 35.6681L346.565 54.1672V28H333.435V54.1672L314.936 35.6681L305.668 44.9361L324.167 63.4352H298V76.5648H324.167L305.668 95.0639L314.936 104.35L333.435 85.8511V112H346.565V85.8511L365.064 104.35L374.35 95.0639L355.851 76.5648H382V63.4352Z" fill="#E449FF"/>
</svg>
