<svg width="36" height="34" viewBox="0 0 36 34" fill="none" xmlns="http://www.w3.org/2000/svg">
<path d="M36 20.4995V33.4361H28.2846V21.3659C28.2846 18.3343 27.1676 16.2645 24.3755 16.2645C22.2425 16.2645 20.9742 17.6591 20.4155 19.0075C20.2121 19.49 20.1599 20.1608 20.1599 20.8362V33.4356H12.4428C12.4428 33.4356 12.5459 12.9929 12.4428 10.8756H20.1594V14.0728C20.1452 14.0965 20.1237 14.1229 20.1096 14.1461H20.1594V14.0728C21.1846 12.5382 23.0161 10.3451 27.1145 10.3451C32.1936 10.3455 36 13.57 36 20.4995ZM4.3675 0C1.72789 0 0 1.68384 0 3.89688C0 6.06311 1.67685 7.797 4.26542 7.797H4.31752C7.00817 7.797 8.68275 6.06311 8.68275 3.89688C8.63186 1.6837 7.00833 0 4.3675 0ZM0.457984 33.4359H8.17343V10.876H0.457984V33.4359Z" fill="#4D55F5"/>
</svg>
