<svg width="175" height="242" viewBox="0 0 175 242" fill="none" xmlns="http://www.w3.org/2000/svg">
<mask id="path-1-outside-1_280_371" maskUnits="userSpaceOnUse" x="8" y="45" width="36" height="151" fill="black">
<rect fill="white" x="8" y="45" width="36" height="151"/>
<path d="M11.5864 194V90.3636H40.3293V194H11.5864ZM26.0253 77.0043C21.7521 77.0043 18.0861 75.5874 15.0274 72.7535C12.0137 69.8748 10.5068 66.4337 10.5068 62.4304C10.5068 58.4721 12.0137 55.076 15.0274 52.2422C18.0861 49.3634 21.7521 47.924 26.0253 47.924C30.2985 47.924 33.942 49.3634 36.9557 52.2422C40.0144 55.076 41.5438 58.4721 41.5438 62.4304C41.5438 66.4337 40.0144 69.8748 36.9557 72.7535C33.942 75.5874 30.2985 77.0043 26.0253 77.0043Z"/>
</mask>
<path d="M11.5864 194V90.3636H40.3293V194H11.5864ZM26.0253 77.0043C21.7521 77.0043 18.0861 75.5874 15.0274 72.7535C12.0137 69.8748 10.5068 66.4337 10.5068 62.4304C10.5068 58.4721 12.0137 55.076 15.0274 52.2422C18.0861 49.3634 21.7521 47.924 26.0253 47.924C30.2985 47.924 33.942 49.3634 36.9557 52.2422C40.0144 55.076 41.5438 58.4721 41.5438 62.4304C41.5438 66.4337 40.0144 69.8748 36.9557 72.7535C33.942 75.5874 30.2985 77.0043 26.0253 77.0043Z" fill="white"/>
<path d="M11.5864 194H9.58638V196H11.5864V194ZM11.5864 90.3636V88.3636H9.58638V90.3636H11.5864ZM40.3293 90.3636H42.3293V88.3636H40.3293V90.3636ZM40.3293 194V196H42.3293V194H40.3293ZM15.0274 72.7535L13.646 74.1998L13.657 74.2103L13.6682 74.2207L15.0274 72.7535ZM15.0274 52.2422L16.3975 53.6992L16.3982 53.6986L15.0274 52.2422ZM36.9557 52.2422L35.5742 53.6884L35.5853 53.6989L35.5965 53.7093L36.9557 52.2422ZM36.9557 72.7535L38.3258 74.2106L38.3264 74.2099L36.9557 72.7535ZM13.5864 194V90.3636H9.58638V194H13.5864ZM11.5864 92.3636H40.3293V88.3636H11.5864V92.3636ZM38.3293 90.3636V194H42.3293V90.3636H38.3293ZM40.3293 192H11.5864V196H40.3293V192ZM26.0253 75.0043C22.2423 75.0043 19.0656 73.7684 16.3867 71.2864L13.6682 74.2207C17.1067 77.4063 21.2619 79.0043 26.0253 79.0043V75.0043ZM16.4089 71.3073C13.772 68.7885 12.5068 65.8627 12.5068 62.4304H8.50684C8.50684 67.0047 10.2554 70.961 13.646 74.1998L16.4089 71.3073ZM12.5068 62.4304C12.5068 59.0512 13.7653 56.1742 16.3975 53.6992L13.6574 50.7851C10.2621 53.9778 8.50684 57.8929 8.50684 62.4304H12.5068ZM16.3982 53.6986C19.0788 51.1756 22.2518 49.924 26.0253 49.924V45.924C21.2525 45.924 17.0935 47.5512 13.6567 50.7858L16.3982 53.6986ZM26.0253 49.924C29.7984 49.924 32.9429 51.1749 35.5742 53.6884L38.3372 50.796C34.941 47.5519 30.7986 45.924 26.0253 45.924V49.924ZM35.5965 53.7093C38.2712 56.1874 39.5438 59.0616 39.5438 62.4304H43.5438C43.5438 57.8825 41.7576 53.9646 38.3149 50.7751L35.5965 53.7093ZM39.5438 62.4304C39.5438 65.8525 38.2643 68.7754 35.585 71.2971L38.3264 74.2099C41.7645 70.9741 43.5438 67.015 43.5438 62.4304H39.5438ZM35.5856 71.2965C32.9562 73.769 29.8079 75.0043 26.0253 75.0043V79.0043C30.7891 79.0043 34.9278 77.4057 38.3258 74.2106L35.5856 71.2965Z" fill="black" mask="url(#path-1-outside-1_280_371)"/>
<mask id="path-3-outside-2_280_371" maskUnits="userSpaceOnUse" x="55" y="46" width="115" height="150" fill="black">
<rect fill="white" x="55" y="46" width="115" height="150"/>
<path d="M57.896 194V48.5455H115.282C126.315 48.5455 135.713 50.6525 143.478 54.8665C151.243 59.0331 157.162 64.8333 161.234 72.267C165.353 79.6534 167.413 88.1761 167.413 97.8352C167.413 107.494 165.33 116.017 161.163 123.403C156.996 130.79 150.959 136.543 143.052 140.662C135.192 144.781 125.675 146.841 114.501 146.841H77.9244V122.196H109.529C115.448 122.196 120.325 121.178 124.16 119.142C128.043 117.059 130.931 114.194 132.825 110.548C134.766 106.855 135.737 102.617 135.737 97.8352C135.737 93.0057 134.766 88.7917 132.825 85.1932C130.931 81.5473 128.043 78.7301 124.16 76.7415C120.278 74.7055 115.353 73.6875 109.387 73.6875H88.6488V194H57.896Z"/>
</mask>
<path d="M57.896 194V48.5455H115.282C126.315 48.5455 135.713 50.6525 143.478 54.8665C151.243 59.0331 157.162 64.8333 161.234 72.267C165.353 79.6534 167.413 88.1761 167.413 97.8352C167.413 107.494 165.33 116.017 161.163 123.403C156.996 130.79 150.959 136.543 143.052 140.662C135.192 144.781 125.675 146.841 114.501 146.841H77.9244V122.196H109.529C115.448 122.196 120.325 121.178 124.16 119.142C128.043 117.059 130.931 114.194 132.825 110.548C134.766 106.855 135.737 102.617 135.737 97.8352C135.737 93.0057 134.766 88.7917 132.825 85.1932C130.931 81.5473 128.043 78.7301 124.16 76.7415C120.278 74.7055 115.353 73.6875 109.387 73.6875H88.6488V194H57.896Z" fill="black"/>
<path d="M57.896 194H55.896V196H57.896V194ZM57.896 48.5455V46.5455H55.896V48.5455H57.896ZM143.478 54.8665L142.524 56.6243L142.533 56.6288L143.478 54.8665ZM161.234 72.267L159.48 73.2279L159.484 73.2345L159.487 73.2412L161.234 72.267ZM143.052 140.662L142.128 138.888L142.124 138.89L143.052 140.662ZM77.9244 146.841H75.9244V148.841H77.9244V146.841ZM77.9244 122.196V120.196H75.9244V122.196H77.9244ZM124.16 119.142L125.098 120.909L125.106 120.904L124.16 119.142ZM132.825 110.548L131.055 109.618L131.05 109.626L132.825 110.548ZM132.825 85.1932L131.05 86.1152L131.057 86.129L131.065 86.1428L132.825 85.1932ZM124.16 76.7415L123.231 78.5127L123.24 78.5172L123.248 78.5216L124.16 76.7415ZM88.6488 73.6875V71.6875H86.6488V73.6875H88.6488ZM88.6488 194V196H90.6488V194H88.6488ZM59.896 194V48.5455H55.896V194H59.896ZM57.896 50.5455H115.282V46.5455H57.896V50.5455ZM115.282 50.5455C126.063 50.5455 135.116 52.604 142.524 56.6243L144.432 53.1086C136.31 48.7009 126.566 46.5455 115.282 46.5455V50.5455ZM142.533 56.6288C149.971 60.6199 155.602 66.148 159.48 73.2279L162.988 71.3062C158.722 63.5187 152.516 57.4464 144.424 53.1042L142.533 56.6288ZM159.487 73.2412C163.418 80.2896 165.413 88.468 165.413 97.8352H169.413C169.413 87.8842 167.289 79.0172 162.981 71.2929L159.487 73.2412ZM165.413 97.8352C165.413 107.199 163.396 115.374 159.421 122.421L162.905 124.386C167.263 116.66 169.413 107.79 169.413 97.8352H165.413ZM159.421 122.421C155.455 129.452 149.71 134.938 142.128 138.888L143.976 142.436C152.208 138.147 158.538 132.128 162.905 124.386L159.421 122.421ZM142.124 138.89C134.615 142.826 125.434 144.841 114.501 144.841V148.841C125.917 148.841 135.77 146.737 143.981 142.433L142.124 138.89ZM114.501 144.841H77.9244V148.841H114.501V144.841ZM79.9244 146.841V122.196H75.9244V146.841H79.9244ZM77.9244 124.196H109.529V120.196H77.9244V124.196ZM109.529 124.196C115.662 124.196 120.888 123.143 125.098 120.909L123.222 117.376C119.762 119.213 115.234 120.196 109.529 120.196V124.196ZM125.106 120.904C129.316 118.645 132.507 115.5 134.6 111.47L131.05 109.626C129.355 112.889 126.769 115.472 123.215 117.38L125.106 120.904ZM134.595 111.479C136.708 107.459 137.737 102.894 137.737 97.8352H133.737C133.737 102.341 132.824 106.251 131.055 109.618L134.595 111.479ZM137.737 97.8352C137.737 92.7342 136.71 88.1825 134.585 84.2436L131.065 86.1428C132.822 89.4008 133.737 93.2771 133.737 97.8352H137.737ZM134.6 84.2712C132.502 80.2332 129.3 77.1271 125.072 74.9614L123.248 78.5216C126.785 80.3332 129.36 82.8615 131.05 86.1152L134.6 84.2712ZM125.089 74.9702C120.835 72.7397 115.566 71.6875 109.387 71.6875V75.6875C115.141 75.6875 119.72 76.6713 123.231 78.5127L125.089 74.9702ZM109.387 71.6875H88.6488V75.6875H109.387V71.6875ZM86.6488 73.6875V194H90.6488V73.6875H86.6488ZM88.6488 192H57.896V196H88.6488V192Z" fill="black" mask="url(#path-3-outside-2_280_371)"/>
</svg>
