<svg width="44" height="33" viewBox="0 0 44 33" fill="none" xmlns="http://www.w3.org/2000/svg">
<path d="M44 1.65C44.0015 1.45695 43.9611 1.26577 43.8815 1.089C43.7999 0.928411 43.6976 0.778689 43.5769 0.6435L43.4416 0.5445C43.3413 0.443804 43.2201 0.365062 43.0862 0.3135H42.934C42.7501 0.167366 42.5368 0.0605561 42.3079 0H1.69815C1.49523 0.00355582 1.29463 0.0426792 1.10592 0.1155H0.953636C0.819735 0.167062 0.698611 0.245804 0.598301 0.3465L0.462935 0.4455C0.342293 0.580689 0.239933 0.730411 0.158362 0.891C0.0338734 1.12448 -0.0189972 1.38799 0.00607565 1.65V31.35C0.00607565 31.7876 0.184347 32.2073 0.501672 32.5167C0.818997 32.8262 1.24938 33 1.69815 33H42.3079C42.7567 33 43.187 32.8262 43.5044 32.5167C43.8217 32.2073 44 31.7876 44 31.35V1.65ZM38.2469 3.3L22.003 19.1235L5.77604 3.3H38.2469ZM3.39022 29.7V5.6265L20.8016 22.6215C20.9589 22.7762 21.1461 22.8989 21.3523 22.9827C21.5585 23.0664 21.7796 23.1096 22.003 23.1096C22.2264 23.1096 22.4476 23.0664 22.6537 22.9827C22.8599 22.8989 23.0471 22.7762 23.2044 22.6215L40.6158 5.6265V29.7H3.39022Z" fill="#EC89FD"/>
</svg>
